<svg width="586" height="643" viewBox="0 0 586 643" fill="none" xmlns="http://www.w3.org/2000/svg">
<ellipse cx="130.5" cy="161" rx="7.5" ry="7" fill="url(#paint0_linear_480_28)"/>
<ellipse cx="253" cy="140.5" rx="5" ry="4.5" fill="url(#paint1_linear_480_28)"/>
<circle cx="176" cy="149" r="2" fill="url(#paint2_linear_480_28)"/>
<circle cx="212" cy="144" r="2" fill="url(#paint3_linear_480_28)"/>
<circle cx="244" cy="139" r="2" fill="url(#paint4_linear_480_28)"/>
<path d="M155.5 232L230 303L225 542L182.5 482.5L163.287 258.193C162.766 252.1 161.315 246.123 158.987 240.468L155.5 232Z" fill="url(#paint5_linear_480_28)"/>
<path fill-rule="evenodd" clip-rule="evenodd" d="M146.733 422.251C140.273 424.2 135.451 431.15 133.846 442.572C130.697 464.98 141.115 496.115 157.115 512.115C166.748 521.749 176.209 523.699 182.9 518.835C183.524 518.647 184.133 518.412 184.726 518.13C191.774 516.7 197.086 509.619 198.787 497.514C201.937 475.107 191.519 443.971 175.519 427.971C166.887 419.339 158.394 416.876 151.908 419.956C150.051 420.333 148.315 421.102 146.733 422.251Z" fill="url(#paint6_linear_480_28)"/>
<path d="M148.5 153L260.5 136.5V138.5L155.5 157L148.5 153Z" fill="url(#paint7_linear_480_28)"/>
<path fill-rule="evenodd" clip-rule="evenodd" d="M462.5 196L291 234L128.5 178L127.034 157.469C127.012 157.172 126.86 156.9 126.617 156.727L125.452 155.894C124.729 155.378 124.988 154.245 125.864 154.095L133.518 152.783C138.486 151.931 143.542 151.709 148.565 152.121L157 152.814L253.458 139.006C253.486 139.002 253.514 139 253.542 139H254.154C255.45 139 256.5 137.95 256.5 136.654V136.654C256.5 135.983 256.974 135.405 257.632 135.274L264.388 133.922C267.45 133.31 270.578 133.099 273.694 133.293L282.711 133.857C284.051 133.941 285.156 134.938 285.377 136.262V136.262C285.449 136.696 285.807 137.026 286.246 137.062L312.133 139.219C330.35 140.737 348.419 143.68 366.176 148.021L407 158L410.409 158.426C410.802 158.475 411.192 158.554 411.574 158.661L419.611 160.911C422.196 161.635 424.691 162.645 427.051 163.923L435.008 168.234C435.335 168.41 435.684 168.541 436.046 168.621L439.782 169.452C439.927 169.484 440.068 169.532 440.202 169.595L455.43 176.787C457.057 177.555 458.253 179.012 458.689 180.757L462.5 196ZM426.165 170.425C424.095 170.801 421.961 170.601 419.998 169.845L411.923 166.74C410.764 166.294 410 165.181 410 163.94V163.344C410 162.674 410.646 162.194 411.287 162.386L418.497 164.549C419.495 164.849 420.454 165.267 421.353 165.796L426.454 168.797C427.159 169.211 426.969 170.278 426.165 170.425V170.425Z" fill="url(#paint8_linear_480_28)"/>
<path d="M138.5 195.5L275.631 256.647C285.602 261.093 296.755 262.154 307.385 259.666L447 227L415.797 528.791C415.297 533.627 412.484 537.921 408.251 540.311L320.339 589.938C302.605 599.949 280.571 598.204 264.633 585.527L203 536.5L170.429 267.542C170.143 265.184 169.69 262.849 169.072 260.555L168.701 259.174C167.244 253.763 164.888 248.636 161.731 244.006L160.939 242.844C159.661 240.969 157.999 239.388 156.063 238.205L150.19 234.616C144.421 231.09 140.702 225.002 140.198 218.26L138.5 195.5Z" fill="#151515"/>
<g filter="url(#filter0_d_480_28)">
<path d="M486.5 209.648C486.5 214.257 483.35 218.269 478.872 219.363L311.646 260.202C298.912 263.312 285.505 262.093 273.541 256.737L120 188L120 175.736C120 174.979 120.428 174.286 121.106 173.947L128 170.5L128.668 175.511C128.871 177.033 129.927 178.304 131.386 178.783L266.419 223.104C283.175 228.603 301.086 229.574 318.338 225.918L453.476 197.277C457.027 196.524 459.626 193.475 459.807 189.85L460 186L484.976 192.126C485.871 192.346 486.5 193.148 486.5 194.069L486.5 209.648Z" fill="url(#paint9_linear_480_28)"/>
</g>
<mask id="path-12-outside-1_480_28" maskUnits="userSpaceOnUse" x="117" y="130.224" width="372" height="469" fill="black">
<rect fill="white" x="117" y="130.224" width="372" height="469"/>
<path fill-rule="evenodd" clip-rule="evenodd" d="M127.966 170.518L127.751 167.515C124.969 166.492 123 163.961 123 161C123 158.969 123.927 157.14 125.408 155.861C124.74 155.331 125.007 154.242 125.864 154.095L133.518 152.783C138.486 151.931 143.542 151.709 148.566 152.121L152.354 152.433L174.014 149.242C174.005 149.162 174 149.082 174 149C174 147.896 174.896 147 176 147C176.988 147 177.809 147.717 177.971 148.659L210.001 143.94C210.033 142.863 210.916 142 212 142C212.883 142 213.632 142.572 213.897 143.366L242.012 139.224C242.004 139.151 242 139.076 242 139C242 137.896 242.896 137 244 137C244.982 137 245.799 137.708 245.968 138.641L248.674 138.243C249.54 136.902 251.153 136 253 136C254.264 136 255.419 136.423 256.3 137.119L256.459 137.096C256.486 136.953 256.5 136.805 256.5 136.654C256.5 135.983 256.974 135.406 257.632 135.274L264.388 133.923C267.45 133.31 270.578 133.099 273.694 133.294L282.711 133.857C284.051 133.941 285.156 134.938 285.377 136.262C285.449 136.696 285.807 137.026 286.246 137.063L312.133 139.22C330.35 140.738 348.419 143.681 366.176 148.021L407 158L410.409 158.426C410.802 158.476 411.192 158.554 411.574 158.661L419.611 160.912C422.196 161.635 424.691 162.645 427.051 163.924L435.008 168.234C435.335 168.411 435.684 168.541 436.046 168.622L439.782 169.452C439.927 169.484 440.068 169.532 440.202 169.596L455.43 176.787C457.057 177.555 458.253 179.012 458.689 180.757L460 186L484.977 192.127C485.871 192.346 486.5 193.148 486.5 194.069V209.649C486.5 214.258 483.35 218.27 478.872 219.363L446.984 227.151L415.797 528.791C415.297 533.627 412.485 537.921 408.251 540.311L320.339 589.938C302.605 599.95 280.571 598.205 264.633 585.527L203 536.501L199.311 506.035L197.533 503.546C195.122 511.98 190.508 516.957 184.726 518.131C184.133 518.412 183.525 518.647 182.9 518.835C176.209 523.699 166.748 521.749 157.115 512.115C141.115 496.115 130.697 464.98 133.846 442.573C135.452 431.15 140.273 424.201 146.733 422.252C148.315 421.102 150.051 420.333 151.908 419.956C158.394 416.876 166.887 419.34 175.519 427.971C176.384 428.836 177.232 429.745 178.063 430.694L163.287 258.193C162.767 252.118 161.324 246.158 159.007 240.518C158.122 239.637 157.134 238.86 156.063 238.205L150.19 234.616C144.421 231.091 140.702 225.003 140.199 218.26L138.56 196.309L120 188L120 175.737C120 174.979 120.428 174.286 121.106 173.948L127.966 170.518ZM419.998 169.846C421.961 170.601 424.095 170.801 426.165 170.425C426.969 170.279 427.159 169.211 426.454 168.797L421.353 165.796C420.454 165.268 419.495 164.849 418.497 164.549L411.287 162.387C410.646 162.194 410 162.675 410 163.344V163.94C410 165.181 410.765 166.294 411.923 166.74L419.998 169.846Z"/>
</mask>
<path d="M127.966 170.518L129.084 172.754L130.578 172.006L130.459 170.34L127.966 170.518ZM127.751 167.515L130.245 167.337L130.13 165.726L128.614 165.169L127.751 167.515ZM125.408 155.861L127.042 157.753L129.326 155.78L126.962 153.903L125.408 155.861ZM125.864 154.095L126.286 156.559L126.286 156.559L125.864 154.095ZM133.518 152.783L133.096 150.319L133.096 150.319L133.518 152.783ZM148.566 152.121L148.361 154.613L148.361 154.613L148.566 152.121ZM152.354 152.433L152.15 154.924L152.435 154.948L152.719 154.906L152.354 152.433ZM174.014 149.242L174.379 151.715L176.787 151.36L176.497 148.943L174.014 149.242ZM177.971 148.659L175.507 149.083L175.921 151.488L178.335 151.132L177.971 148.659ZM210.001 143.94L210.365 146.413L212.438 146.108L212.5 144.014L210.001 143.94ZM213.897 143.366L211.526 144.158L212.19 146.144L214.262 145.839L213.897 143.366ZM242.012 139.224L242.377 141.697L244.764 141.346L244.497 138.947L242.012 139.224ZM245.968 138.641L243.508 139.087L243.939 141.467L246.332 141.115L245.968 138.641ZM248.674 138.243L249.038 140.716L250.159 140.551L250.774 139.599L248.674 138.243ZM256.3 137.119L254.749 139.08L255.596 139.75L256.664 139.592L256.3 137.119ZM256.459 137.096L256.823 139.569L258.582 139.31L258.914 137.563L256.459 137.096ZM257.632 135.274L258.122 137.726L258.122 137.726L257.632 135.274ZM264.388 133.923L263.898 131.471L263.898 131.471L264.388 133.923ZM273.694 133.294L273.85 130.799L273.85 130.799L273.694 133.294ZM282.711 133.857L282.867 131.362L282.867 131.362L282.711 133.857ZM285.377 136.262L282.911 136.673L282.911 136.673L285.377 136.262ZM286.246 137.063L286.038 139.554L286.038 139.554L286.246 137.063ZM312.133 139.22L311.926 141.711L311.926 141.711L312.133 139.22ZM366.176 148.021L366.77 145.593L366.77 145.593L366.176 148.021ZM407 158L406.406 160.429L406.547 160.463L406.69 160.481L407 158ZM410.409 158.426L410.099 160.907L410.099 160.907L410.409 158.426ZM411.574 158.661L410.9 161.068L410.9 161.068L411.574 158.661ZM419.611 160.912L420.285 158.504L420.285 158.504L419.611 160.912ZM427.051 163.924L425.86 166.122L425.86 166.122L427.051 163.924ZM435.008 168.234L436.199 166.036L436.199 166.036L435.008 168.234ZM436.046 168.622L436.588 166.181L436.588 166.181L436.046 168.622ZM439.782 169.452L439.24 171.892L439.24 171.892L439.782 169.452ZM440.202 169.596L441.27 167.335L441.27 167.335L440.202 169.596ZM455.43 176.787L456.498 174.526L456.498 174.526L455.43 176.787ZM458.689 180.757L456.264 181.364L456.264 181.364L458.689 180.757ZM460 186L457.575 186.607L457.94 188.069L459.405 188.428L460 186ZM484.977 192.127L484.381 194.555L484.381 194.555L484.977 192.127ZM478.872 219.363L478.279 216.935L478.279 216.935L478.872 219.363ZM446.984 227.151L446.391 224.722L444.679 225.14L444.498 226.894L446.984 227.151ZM415.797 528.791L418.284 529.048L418.284 529.048L415.797 528.791ZM408.251 540.311L409.48 542.488L409.48 542.488L408.251 540.311ZM320.339 589.938L321.568 592.115L321.568 592.115L320.339 589.938ZM264.633 585.527L263.077 587.484L263.077 587.484L264.633 585.527ZM203 536.501L200.518 536.801L200.641 537.819L201.444 538.457L203 536.501ZM199.311 506.035L201.793 505.735L201.716 505.101L201.345 504.582L199.311 506.035ZM197.533 503.546L199.567 502.093L196.553 497.874L195.129 502.859L197.533 503.546ZM184.726 518.131L184.228 515.681L183.929 515.741L183.653 515.872L184.726 518.131ZM182.9 518.835L182.178 516.442L181.773 516.564L181.43 516.813L182.9 518.835ZM157.115 512.115L158.883 510.348L158.883 510.348L157.115 512.115ZM133.846 442.573L131.37 442.225L131.37 442.225L133.846 442.573ZM146.733 422.252L147.455 424.645L147.861 424.523L148.203 424.274L146.733 422.252ZM151.908 419.956L152.405 422.406L152.704 422.346L152.98 422.215L151.908 419.956ZM175.519 427.971L177.287 426.204L177.287 426.204L175.519 427.971ZM178.063 430.694L176.181 432.341L181.205 438.08L180.554 430.481L178.063 430.694ZM163.287 258.193L160.797 258.407L160.797 258.407L163.287 258.193ZM159.007 240.518L161.32 239.569L161.128 239.102L160.771 238.747L159.007 240.518ZM156.063 238.205L154.759 240.339L154.759 240.339L156.063 238.205ZM150.19 234.616L148.886 236.75L148.886 236.75L150.19 234.616ZM140.199 218.26L142.692 218.074L142.692 218.074L140.199 218.26ZM138.56 196.309L141.054 196.123L140.943 194.637L139.582 194.028L138.56 196.309ZM120 188L117.5 188L117.5 189.62L118.979 190.282L120 188ZM120 175.737L117.5 175.736L117.5 175.737L120 175.737ZM121.106 173.948L119.988 171.712L119.988 171.712L121.106 173.948ZM426.165 170.425L425.718 167.965L425.718 167.965L426.165 170.425ZM419.998 169.846L419.1 172.179L419.1 172.179L419.998 169.846ZM426.454 168.797L425.187 170.952L425.187 170.952L426.454 168.797ZM421.353 165.796L422.62 163.641L422.62 163.641L421.353 165.796ZM418.497 164.549L419.215 162.155L419.215 162.155L418.497 164.549ZM411.287 162.387L412.006 159.992L412.006 159.992L411.287 162.387ZM411.923 166.74L411.026 169.073L411.026 169.073L411.923 166.74ZM130.459 170.34L130.245 167.337L125.257 167.693L125.472 170.696L130.459 170.34ZM128.614 165.169C126.699 164.465 125.5 162.794 125.5 161H120.5C120.5 165.127 123.238 168.519 126.888 169.862L128.614 165.169ZM125.5 161C125.5 159.757 126.063 158.599 127.042 157.753L123.774 153.969C121.791 155.681 120.5 158.181 120.5 161H125.5ZM126.962 153.903C127.97 154.704 127.58 156.337 126.286 156.559L125.442 151.631C122.433 152.147 121.509 155.958 123.853 157.819L126.962 153.903ZM126.286 156.559L133.941 155.247L133.096 150.319L125.442 151.631L126.286 156.559ZM133.941 155.247C138.702 154.431 143.547 154.218 148.361 154.613L148.77 149.63C143.537 149.2 138.271 149.432 133.096 150.319L133.941 155.247ZM148.361 154.613L152.15 154.924L152.559 149.941L148.77 149.63L148.361 154.613ZM152.719 154.906L174.379 151.715L173.65 146.768L151.99 149.959L152.719 154.906ZM176.497 148.943C176.499 148.963 176.5 148.982 176.5 149H171.5C171.5 149.182 171.511 149.362 171.532 149.54L176.497 148.943ZM176.5 149C176.5 149.277 176.276 149.5 176 149.5V144.5C173.515 144.5 171.5 146.515 171.5 149H176.5ZM176 149.5C175.751 149.5 175.548 149.32 175.507 149.083L180.435 148.235C180.07 146.114 178.226 144.5 176 144.5V149.5ZM178.335 151.132L210.365 146.413L209.637 141.467L177.607 146.185L178.335 151.132ZM212.5 144.014C212.492 144.285 212.272 144.5 212 144.5V139.5C209.56 139.5 207.574 141.442 207.502 143.866L212.5 144.014ZM212 144.5C211.776 144.5 211.592 144.354 211.526 144.158L216.268 142.573C215.673 140.791 213.99 139.5 212 139.5V144.5ZM214.262 145.839L242.377 141.697L241.648 136.751L213.533 140.893L214.262 145.839ZM244.497 138.947C244.499 138.966 244.5 138.984 244.5 139H239.5C239.5 139.168 239.509 139.335 239.528 139.501L244.497 138.947ZM244.5 139C244.5 139.277 244.276 139.5 244 139.5V134.5C241.515 134.5 239.5 136.515 239.5 139H244.5ZM244 139.5C243.752 139.5 243.551 139.322 243.508 139.087L248.428 138.195C248.047 136.094 246.212 134.5 244 134.5V139.5ZM246.332 141.115L249.038 140.716L248.31 135.769L245.604 136.168L246.332 141.115ZM250.774 139.599C251.155 139.009 251.956 138.5 253 138.5V133.5C250.35 133.5 247.924 134.795 246.574 136.886L250.774 139.599ZM253 138.5C253.707 138.5 254.314 138.736 254.749 139.08L257.851 135.158C256.524 134.109 254.822 133.5 253 133.5V138.5ZM256.664 139.592L256.823 139.569L256.094 134.622L255.935 134.646L256.664 139.592ZM258.914 137.563C258.971 137.267 259 136.963 259 136.654H254C254 136.648 254.001 136.639 254.003 136.628L258.914 137.563ZM259 136.654C259 137.175 258.633 137.623 258.122 137.726L257.141 132.823C255.315 133.188 254 134.792 254 136.654H259ZM258.122 137.726L264.879 136.374L263.898 131.471L257.141 132.823L258.122 137.726ZM264.879 136.374C267.727 135.804 270.638 135.608 273.538 135.789L273.85 130.799C270.518 130.59 267.172 130.816 263.898 131.471L264.879 136.374ZM273.538 135.789L282.555 136.352L282.867 131.362L273.85 130.799L273.538 135.789ZM282.555 136.352C282.734 136.364 282.882 136.497 282.911 136.673L287.843 135.851C287.431 133.379 285.368 131.519 282.867 131.362L282.555 136.352ZM282.911 136.673C283.172 138.236 284.459 139.422 286.038 139.554L286.453 134.571C287.155 134.63 287.727 135.157 287.843 135.851L282.911 136.673ZM286.038 139.554L311.926 141.711L312.341 136.728L286.453 134.571L286.038 139.554ZM311.926 141.711C330.012 143.218 347.953 146.14 365.582 150.45L366.77 145.593C348.886 141.221 330.688 138.257 312.341 136.728L311.926 141.711ZM365.582 150.45L406.406 160.429L407.594 155.572L366.77 145.593L365.582 150.45ZM406.69 160.481L410.099 160.907L410.719 155.946L407.31 155.52L406.69 160.481ZM410.099 160.907C410.369 160.941 410.637 160.995 410.9 161.068L412.248 156.254C411.747 156.113 411.236 156.01 410.719 155.946L410.099 160.907ZM410.9 161.068L418.937 163.319L420.285 158.504L412.248 156.254L410.9 161.068ZM418.937 163.319C421.342 163.992 423.664 164.932 425.86 166.122L428.242 161.725C425.718 160.358 423.049 159.278 420.285 158.504L418.937 163.319ZM425.86 166.122L433.818 170.432L436.199 166.036L428.242 161.725L425.86 166.122ZM433.818 170.432C434.348 170.719 434.915 170.931 435.504 171.062L436.588 166.181C436.452 166.151 436.321 166.102 436.199 166.036L433.818 170.432ZM435.504 171.062L439.24 171.892L440.324 167.011L436.588 166.181L435.504 171.062ZM439.24 171.892C439.203 171.884 439.168 171.872 439.135 171.856L441.27 167.335C440.968 167.193 440.651 167.084 440.324 167.011L439.24 171.892ZM439.135 171.856L454.363 179.048L456.498 174.526L441.27 167.335L439.135 171.856ZM454.363 179.048C455.312 179.496 456.009 180.346 456.264 181.364L461.115 180.151C460.497 177.679 458.802 175.614 456.498 174.526L454.363 179.048ZM456.264 181.364L457.575 186.607L462.425 185.394L461.115 180.151L456.264 181.364ZM459.405 188.428L484.381 194.555L485.572 189.699L460.596 183.572L459.405 188.428ZM484.381 194.555C484.157 194.5 484 194.299 484 194.069H489C489 191.997 487.585 190.192 485.572 189.699L484.381 194.555ZM484 194.069V209.649H489V194.069H484ZM484 209.649C484 213.105 481.637 216.114 478.279 216.935L479.466 221.792C485.062 220.425 489 215.41 489 209.649H484ZM478.279 216.935L446.391 224.722L447.578 229.579L479.466 221.792L478.279 216.935ZM444.498 226.894L413.311 528.534L418.284 529.048L449.471 227.408L444.498 226.894ZM413.311 528.534C412.894 532.564 410.55 536.142 407.022 538.134L409.48 542.488C414.419 539.7 417.701 534.69 418.284 529.048L413.311 528.534ZM407.022 538.134L319.11 587.761L321.568 592.115L409.48 542.488L407.022 538.134ZM319.11 587.761C302.263 597.272 281.331 595.614 266.19 583.571L263.077 587.484C279.812 600.795 302.947 602.627 321.568 592.115L319.11 587.761ZM266.19 583.571L204.556 534.544L201.444 538.457L263.077 587.484L266.19 583.571ZM205.482 536.2L201.793 505.735L196.829 506.336L200.518 536.801L205.482 536.2ZM201.345 504.582L199.567 502.093L195.498 504.999L197.276 507.488L201.345 504.582ZM195.129 502.859C192.863 510.787 188.756 514.762 184.228 515.681L185.223 520.581C192.261 519.153 197.382 513.173 199.936 504.233L195.129 502.859ZM183.653 515.872C183.174 516.1 182.682 516.29 182.178 516.442L183.622 521.229C184.367 521.004 185.093 520.724 185.798 520.389L183.653 515.872ZM181.43 516.813C178.734 518.773 175.465 519.409 171.708 518.484C167.881 517.543 163.492 514.957 158.883 510.348L155.347 513.883C160.371 518.907 165.529 522.114 170.514 523.34C175.568 524.583 180.376 523.761 184.37 520.857L181.43 516.813ZM158.883 510.348C151.228 502.693 144.795 491.281 140.67 478.954C136.546 466.626 134.815 453.641 136.322 442.921L131.37 442.225C129.728 453.912 131.632 467.698 135.929 480.54C140.226 493.382 147.002 505.538 155.347 513.883L158.883 510.348ZM136.322 442.921C137.872 431.891 142.378 426.177 147.455 424.645L146.011 419.858C138.168 422.224 133.031 430.409 131.37 442.225L136.322 442.921ZM148.203 424.274C149.503 423.329 150.909 422.71 152.405 422.406L151.411 417.506C149.193 417.956 147.126 418.875 145.263 420.23L148.203 424.274ZM152.98 422.215C158.035 419.814 165.409 421.397 173.751 429.739L177.287 426.204C168.365 417.282 158.753 413.938 150.836 417.698L152.98 422.215ZM173.751 429.739C174.575 430.563 175.385 431.431 176.181 432.341L179.944 429.048C179.079 428.059 178.192 427.11 177.287 426.204L173.751 429.739ZM180.554 430.481L165.778 257.98L160.797 258.407L175.572 430.908L180.554 430.481ZM165.778 257.98C165.236 251.652 163.733 245.443 161.32 239.569L156.695 241.468C158.915 246.873 160.298 252.585 160.797 258.407L165.778 257.98ZM160.771 238.747C159.748 237.728 158.606 236.829 157.366 236.072L154.759 240.339C155.663 240.891 156.497 241.547 157.244 242.29L160.771 238.747ZM157.366 236.072L151.493 232.483L148.886 236.75L154.759 240.339L157.366 236.072ZM151.494 232.483C146.411 229.377 143.135 224.014 142.692 218.074L137.705 218.446C138.269 225.992 142.43 232.804 148.886 236.75L151.494 232.483ZM142.692 218.074L141.054 196.123L136.067 196.495L137.705 218.446L142.692 218.074ZM139.582 194.028L121.022 185.719L118.979 190.282L137.539 198.591L139.582 194.028ZM122.5 188L122.5 175.737L117.5 175.737L117.5 188L122.5 188ZM122.5 175.737C122.5 175.926 122.393 176.099 122.224 176.184L119.988 171.712C118.463 172.474 117.5 174.032 117.5 175.736L122.5 175.737ZM122.224 176.184L129.084 172.754L126.848 168.282L119.988 171.712L122.224 176.184ZM425.718 167.965C424.099 168.26 422.431 168.103 420.895 167.512L419.1 172.179C421.492 173.099 424.091 173.343 426.612 172.885L425.718 167.965ZM425.187 170.952C423.894 170.191 424.242 168.234 425.718 167.965L426.612 172.885C429.696 172.324 430.424 168.232 427.722 166.642L425.187 170.952ZM420.085 167.951L425.187 170.952L427.722 166.642L422.62 163.641L420.085 167.951ZM417.779 166.944C418.585 167.186 419.359 167.524 420.085 167.951L422.62 163.641C421.549 163.011 420.406 162.512 419.215 162.155L417.779 166.944ZM410.569 164.781L417.779 166.944L419.215 162.155L412.006 159.992L410.569 164.781ZM412.5 163.344C412.5 164.349 411.531 165.07 410.569 164.781L412.006 159.992C409.76 159.318 407.5 161 407.5 163.344H412.5ZM412.5 163.94V163.344H407.5V163.94H412.5ZM412.821 164.407C412.627 164.332 412.5 164.147 412.5 163.94H407.5C407.5 166.216 408.902 168.256 411.026 169.073L412.821 164.407ZM420.895 167.512L412.821 164.407L411.026 169.073L419.1 172.179L420.895 167.512Z" fill="white" mask="url(#path-12-outside-1_480_28)"/>
<defs>
<filter id="filter0_d_480_28" x="100" y="170.5" width="406.5" height="131.387" filterUnits="userSpaceOnUse" color-interpolation-filters="sRGB">
<feFlood flood-opacity="0" result="BackgroundImageFix"/>
<feColorMatrix in="SourceAlpha" type="matrix" values="0 0 0 0 0 0 0 0 0 0 0 0 0 0 0 0 0 0 127 0" result="hardAlpha"/>
<feOffset dy="20"/>
<feGaussianBlur stdDeviation="10"/>
<feComposite in2="hardAlpha" operator="out"/>
<feColorMatrix type="matrix" values="0 0 0 0 0 0 0 0 0 0 0 0 0 0 0 0 0 0 1 0"/>
<feBlend mode="normal" in2="BackgroundImageFix" result="effect1_dropShadow_480_28"/>
<feBlend mode="normal" in="SourceGraphic" in2="effect1_dropShadow_480_28" result="shape"/>
</filter>
<linearGradient id="paint0_linear_480_28" x1="130.5" y1="154" x2="130.5" y2="168" gradientUnits="userSpaceOnUse">
<stop/>
<stop offset="1"/>
</linearGradient>
<linearGradient id="paint1_linear_480_28" x1="253" y1="136" x2="253" y2="145" gradientUnits="userSpaceOnUse">
<stop/>
<stop offset="1"/>
</linearGradient>
<linearGradient id="paint2_linear_480_28" x1="176" y1="147" x2="176" y2="151" gradientUnits="userSpaceOnUse">
<stop/>
<stop offset="1"/>
</linearGradient>
<linearGradient id="paint3_linear_480_28" x1="212" y1="142" x2="212" y2="146" gradientUnits="userSpaceOnUse">
<stop/>
<stop offset="1"/>
</linearGradient>
<linearGradient id="paint4_linear_480_28" x1="244" y1="137" x2="244" y2="141" gradientUnits="userSpaceOnUse">
<stop/>
<stop offset="1"/>
</linearGradient>
<linearGradient id="paint5_linear_480_28" x1="192.75" y1="232" x2="192.75" y2="542" gradientUnits="userSpaceOnUse">
<stop/>
<stop offset="1"/>
</linearGradient>
<linearGradient id="paint6_linear_480_28" x1="166.317" y1="418.686" x2="166.317" y2="521.401" gradientUnits="userSpaceOnUse">
<stop stop-color="#222222"/>
<stop offset="1"/>
</linearGradient>
<linearGradient id="paint7_linear_480_28" x1="204.5" y1="136.5" x2="204.5" y2="157" gradientUnits="userSpaceOnUse">
<stop/>
<stop offset="1"/>
</linearGradient>
<linearGradient id="paint8_linear_480_28" x1="293" y1="133" x2="293" y2="234" gradientUnits="userSpaceOnUse">
<stop stop-color="#FFE600"/>
<stop offset="1" stop-color="#D7B500"/>
</linearGradient>
<linearGradient id="paint9_linear_480_28" x1="533.5" y1="231" x2="132.326" y2="143.413" gradientUnits="userSpaceOnUse">
<stop/>
<stop offset="1" stop-color="#333333"/>
</linearGradient>
</defs>
</svg>
