<svg id="0298402e-f006-49ce-954b-393ee8843de7" data-name="Calque 1" xmlns="http://www.w3.org/2000/svg" width="1000" height="1206" viewBox="0 0 1000 1206"><title>Resin Code Alt</title><path d="M880.7341,630.30843,822.96219,530.2458l-74.37944,42.94348,57.77191,100.06214c14.65023,25.37569,4.88018,47.97865-.001,56.43205C801.47351,738.13687,786.95886,758,757.6584,758H550V714.65332l-148.75889,85.886L550,886.42528V843H757.6584c51.377,0,97.38574-26.32251,123.07474-70.816C906.42213,727.68994,906.42213,674.80341,880.7341,630.30843Z"/><path d="M376.92487,184.03227,319.15314,284.09493l74.379,42.94323,57.77215-100.0629c14.65046-25.37508,38.93483-28.1153,48.69584-28.11456,9.76095-.00034,34.04576,2.73889,48.69647,28.11468L652.73233,407.17051l-37.34058,21.47162L764,514.52811v-171.772l-37.03887,21.47137L623.00075,184.03239c-25.689-44.49464-71.66129-71.0582-123.03825-71.05767C448.585,112.9744,402.6129,139.53818,376.92487,184.03227Z"/><path d="M242.34191,843H358V758H242.34191c-29.30069,0-43.81508-19.86326-48.69584-28.31632s-14.65044-30.95566-.00021-56.3306l104.10005-180.246L335,514.52829v-171.772l-148.823,85.886,37.15741,21.47134L119.28244,630.3092c-25.68851,44.4938-25.69667,97.37991-.0078,141.87448C144.96309,816.678,190.96446,843,242.34191,843Z"/><path d="M432.792,642.498c-28.76758,0-53.81543-18.84863-53.81543-52.57617V515.52148c0-33.72852,25.04785-52.57617,53.81543-52.57617,28.76855,0,53.56836,18.84766,53.56836,52.57617v74.40039C486.36035,623.64941,461.56055,642.498,432.792,642.498Zm21.32813-126.48047c0-14.88086-8.43164-24.05664-21.32812-24.05664-12.89551,0-21.5752,9.17578-21.5752,24.05664v73.65625c0,14.87988,8.67969,23.80762,21.5752,23.80762,12.89648,0,21.32813-8.92773,21.32813-23.80762Z"/><path d="M561.50488,641.00977V499.15332l-35.96094,31.248v-34.7207l35.96094-31.248h32.24023V641.00977Z"/><path d="M365.33789,1039.51367H331.3623v66.46387H296.88965V929.40039h68.44824c36.7041,0,58.28027,25.04883,58.28027,55.05664S402.042,1039.51367,365.33789,1039.51367Zm-1.73535-79.36035H331.3623v48.35937h32.24023c15.624,0,25.54395-9.67187,25.54395-24.05566S379.22656,960.15332,363.60254,960.15332Z"/><path d="M452.63184,1105.97754V929.40039h116.3125v30.75293H487.10352v41.416H556.792v30.752H487.10352v42.9043h81.84082v30.752Z"/><path d="M670.127,960.15332v145.82422H635.65527V960.15332H589.52637V929.40039H716.25488v30.75293Z"/></svg>