<svg id="18e09d4c-1bfa-40a9-abab-53fa39719027" data-name="Calque 1" xmlns="http://www.w3.org/2000/svg" width="1000" height="1206.3" viewBox="0 0 1000 1206.3"><title>Resin Code Alt</title><path d="M880.7341,630.90843,822.96219,530.8458l-74.37944,42.94348,57.77191,100.06214c14.65023,25.37569,4.88018,47.82865-.001,56.28205C801.47351,738.58687,786.95886,758.3,757.6584,758.3H550V715.25332l-148.75889,85.886L550,887.02528V844.3H757.6584c51.377,0,97.38574-26.67251,123.07474-71.166A140.87281,140.87281,0,0,0,880.7341,630.90843Z"/><path d="M376.92487,184.63227,319.15314,284.69493l74.379,42.94323,57.77215-100.0629c14.65046-25.37508,38.93483-28.1153,48.69584-28.11456,9.76095-.00034,34.04576,2.73889,48.69647,28.11468L652.73233,407.77051l-37.34058,21.47162L764,515.12811v-171.772l-37.03887,21.47137L623.00075,184.63239c-25.689-44.49464-71.66129-71.0582-123.03825-71.05767C448.585,113.5744,402.6129,140.13818,376.92487,184.63227Z"/><path d="M242.34191,844.3H358v-86H242.34191c-29.30069,0-43.81508-19.71326-48.69584-28.16632s-14.65044-30.88066-.00021-56.2556L297.74591,493.66958,335,515.12829v-171.772l-148.823,85.886,37.15741,21.47134L119.28244,630.9092a140.87,140.87,0,0,0-.0078,142.22448C144.96309,817.628,190.96446,844.3,242.34191,844.3Z"/><path d="M432.792,643.09785c-28.76758,0-53.81543-18.84863-53.81543-52.57617V516.12129c0-33.72852,25.04785-52.57617,53.81543-52.57617,28.76855,0,53.56836,18.84766,53.56836,52.57617v74.40039C486.36035,624.24922,461.56055,643.09785,432.792,643.09785Zm21.32813-126.48047c0-14.88086-8.43164-24.05664-21.32812-24.05664-12.89551,0-21.5752,9.17578-21.5752,24.05664v73.65625c0,14.87988,8.67969,23.80762,21.5752,23.80762,12.89648,0,21.32813-8.92773,21.32813-23.80762Z"/><path d="M514.63184,641.60957V612.593l65.96875-76.63184c6.44824-7.68848,9.17578-13.14453,9.17578-21.32812,0-13.14453-7.6875-22.07227-21.32812-22.07227-10.66406,0-21.57617,5.45605-21.57617,22.56836H514.63184c0-32.24023,23.56055-51.584,53.81641-51.584,31.248,0,53.56836,19.5918,53.56836,51.33594,0,17.1123-6.69629,26.28809-18.84766,40.42383L553.81641,612.593h68.2002v29.0166Z"/><path d="M216.66309,1040.11348H182.6875v66.46387H148.21484V930.0002h68.44824c36.7041,0,58.28027,25.04883,58.28027,55.05664S253.36719,1040.11348,216.66309,1040.11348Zm-1.73535-79.36035H182.6875v48.35938h32.24023c15.624,0,25.54395-9.67187,25.54395-24.05566S230.55176,960.75313,214.92773,960.75313Z"/><path d="M303.957,1106.57734V930.0002h116.3125v30.75293H338.42871v41.416h69.68848v30.752H338.42871v42.9043h81.84082v30.752Z"/><path d="M448.04395,1050.77754v-30.00879h76.38477v30.00879Z"/><path d="M653.88379,1106.57734V1032.673H594.11523v73.9043H559.64258V930.0002h34.47266v72.16895h59.76855V930.0002h34.47168v176.57715Z"/><path d="M846.5791,1080.78535c-12.64844,17.6084-29.26465,25.792-53.32031,25.792H729.52246V930.0002h63.73633c24.05566,0,40.67188,8.18457,53.32031,25.793,10.91211,15.12793,11.16016,33.23145,11.16016,62.49609C857.73926,1047.55293,857.49121,1065.65742,846.5791,1080.78535ZM816.07422,971.66426c-5.70312-7.19141-14.13574-10.91113-25.792-10.91113H763.99414v115.07227h26.28809c11.65625,0,20.08887-3.71973,25.792-10.91211,6.44824-7.68848,7.19238-18.84863,7.19238-46.624C823.2666,990.51289,822.52246,979.35273,816.07422,971.66426Z"/></svg>