<svg id="8a026658-6479-442e-b8cf-d689c6aec708" data-name="Calque 1" xmlns="http://www.w3.org/2000/svg" width="1000" height="1206" viewBox="0 0 1000 1206"><title>Resin Code Alt</title><path d="M880.7341,630.60843,822.96219,530.5458l-74.37944,42.94348,57.77191,100.06214c14.65023,25.37569,4.88018,47.82865-.001,56.28205C801.47351,738.28687,786.95886,758,757.6584,758H550V714.95332l-148.75889,85.886L550,886.72528V844H757.6584c51.377,0,97.38574-26.67251,123.07474-71.166A140.87281,140.87281,0,0,0,880.7341,630.60843Z"/><path d="M376.92487,184.33227,319.15314,284.39493l74.379,42.94323,57.77215-100.0629c14.65046-25.37508,38.93483-28.1153,48.69584-28.11456,9.76095-.00034,34.04576,2.73889,48.69647,28.11468L652.73233,407.47051l-37.34058,21.47162L764,514.82811v-171.772l-37.03887,21.47137L623.00075,184.33239c-25.689-44.49464-71.66129-71.0582-123.03825-71.05767C448.585,113.2744,402.6129,139.83818,376.92487,184.33227Z"/><path d="M242.34191,844H358V758H242.34191c-29.30069,0-43.81508-19.71326-48.69584-28.16632s-14.65044-30.88066-.00021-56.2556L297.74591,493.36958,335,514.82829v-171.772l-148.823,85.886,37.15741,21.47134L119.28244,630.6092a140.87,140.87,0,0,0-.0078,142.22448C144.96309,817.328,190.96446,844,242.34191,844Z"/><path d="M432.792,642.79785c-28.76855,0-53.81543-18.84863-53.81543-52.57617V515.82129c0-33.72852,25.04688-52.57617,53.81543-52.57617s53.56836,18.84766,53.56836,52.57617v74.40039C486.36035,623.94922,461.56055,642.79785,432.792,642.79785Zm21.32813-126.48047c0-14.88086-8.43164-24.05664-21.32812-24.05664-12.89551,0-21.5752,9.17578-21.5752,24.05664v73.65625c0,14.87988,8.67969,23.80762,21.5752,23.80762,12.89648,0,21.32813-8.92773,21.32813-23.80762Z"/><path d="M566.71289,642.79785c-28.76855,0-55.80078-15.12793-56.29688-52.08008h32.24023c.49609,15.87207,11.4082,23.06348,24.05664,23.06348,13.8877,0,23.80762-8.67969,23.80762-24.55176,0-14.63184-8.92871-24.30469-24.7998-24.30469h-4.71289V536.90137h4.71289c15.623,0,22.32031-9.67187,22.32031-22.07227,0-14.87988-9.9209-22.56836-21.57617-22.56836-12.15234,0-21.08008,7.93652-21.82422,21.32813H512.40039c.74414-31.49609,24.30371-50.34375,54.06445-50.34375,31.248,0,53.81641,20.832,53.81641,50.5918,0,19.0957-8.68066,30.00781-20.33691,36.208,12.64746,6.69629,22.81641,18.84863,22.81641,40.17676C622.76074,625.4375,596.96875,642.79785,566.71289,642.79785Z"/><path d="M363.47852,1039.81348H329.502v66.46387H295.0293V929.7002h68.44922c36.70313,0,58.2793,25.04883,58.2793,55.05664S400.18164,1039.81348,363.47852,1039.81348Zm-1.73633-79.36035H329.502v48.35938h32.24023c15.624,0,25.54395-9.67187,25.54395-24.05566S377.36621,960.45313,361.74219,960.45313Z"/><path d="M515.00391,1106.27734h-25.792L430.93164,929.7002h35.71191l35.46387,115.07324L537.57227,929.7002h35.96Z"/><path d="M651.65234,1107.76563c-20.33691,0-35.2168-6.69629-47.36914-18.60059-17.60742-17.60742-17.85547-37.44824-17.85547-71.17578,0-33.72852.248-53.56836,17.85547-71.17676,12.15234-11.9043,27.03223-18.59961,47.36914-18.59961,32.9834,0,58.2793,18.84766,64.72754,55.7998H681.16406c-3.47266-14.38379-12.40039-25.04785-29.51172-25.04785-9.4248,0-17.11328,3.47168-22.07227,9.17578-6.44824,7.44043-8.68066,16.12012-8.68066,49.84863,0,33.72754,2.23242,42.4082,8.68066,49.84766,4.959,5.7041,12.64746,9.17676,22.07227,9.17676,17.11133,0,26.28711-10.66406,29.75977-25.04883h34.96777C709.93164,1088.917,684.3877,1107.76563,651.65234,1107.76563Z"/></svg>