<svg id="ef2638a1-075e-46a2-8160-e841141b5fff" data-name="Calque 1" xmlns="http://www.w3.org/2000/svg" width="1000" height="1206" viewBox="0 0 1000 1206"><title>Resin Code Alt</title><path d="M880.7341,630.60843,822.96219,530.5458l-74.37944,42.94348,57.77191,100.06214c14.65023,25.37569,4.88018,47.82865-.001,56.28205C801.47351,738.28687,786.95886,758,757.6584,758H550V714.95332l-148.75889,85.886L550,886.72528V844H757.6584c51.377,0,97.38574-26.67251,123.07474-71.166A140.87281,140.87281,0,0,0,880.7341,630.60843Z"/><path d="M376.92487,184.33227,319.15314,284.39493l74.379,42.94323,57.77215-100.0629c14.65046-25.37508,38.93483-28.1153,48.69584-28.11456,9.76095-.00034,34.04576,2.73889,48.69647,28.11468L652.73233,407.47051l-37.34058,21.47162L764,514.82811v-171.772l-37.03887,21.47137L623.00075,184.33239c-25.689-44.49464-71.66129-71.0582-123.03825-71.05767C448.585,113.2744,402.6129,139.83818,376.92487,184.33227Z"/><path d="M242.34191,844H358V758H242.34191c-29.30069,0-43.81508-19.71326-48.69584-28.16632s-14.65044-30.88066-.00021-56.2556L297.74591,493.36958,335,514.82829v-171.772l-148.823,85.886,37.15741,21.47134L119.28244,630.6092a140.87,140.87,0,0,0-.0078,142.22448C144.96309,817.328,190.96446,844,242.34191,844Z"/><path d="M432.792,642.79785c-28.76855,0-53.81543-18.84863-53.81543-52.57617V515.82129c0-33.72852,25.04688-52.57617,53.81543-52.57617s53.56836,18.84766,53.56836,52.57617v74.40039C486.36035,623.94922,461.56055,642.79785,432.792,642.79785Zm21.32813-126.48047c0-14.88086-8.43164-24.05664-21.32812-24.05664-12.89551,0-21.5752,9.17578-21.5752,24.05664v73.65625c0,14.87988,8.67969,23.80762,21.5752,23.80762,12.89648,0,21.32813-8.92773,21.32813-23.80762Z"/><path d="M610.85645,616.26172v25.04785h-31V616.26172H507.6875V585.75781l60.5127-121.02539H603.416L542.9043,585.75781h36.95215V552.77344h31v32.98438h16.12012v30.50391Z"/><path d="M230.30273,1039.81348H196.32715v66.46387H161.85547V929.7002h68.44727c36.70508,0,58.28125,25.04883,58.28125,55.05664S267.00781,1039.81348,230.30273,1039.81348Zm-1.73535-79.36035H196.32715v48.35938h32.24023c15.624,0,25.54395-9.67187,25.54395-24.05566S244.19141,960.45313,228.56738,960.45313Z"/><path d="M317.59668,1106.27734V929.7002h116.3125v30.75293H352.06836v41.416h69.68945v30.752H352.06836v42.9043h81.84082v30.752Z"/><path d="M461.68359,1050.47754v-30.00879h76.38477v30.00879Z"/><path d="M573.28223,1106.27734V929.7002h34.47168v145.8252h80.10547v30.752Z"/><path d="M832.9375,1080.48535c-12.64746,17.6084-29.26367,25.792-53.32031,25.792H715.88086V929.7002h63.73633c24.05664,0,40.67285,8.18457,53.32031,25.793,10.91211,15.12793,11.16016,33.23145,11.16016,62.49609C844.09766,1047.25293,843.84961,1065.35742,832.9375,1080.48535ZM802.43359,971.36426c-5.70312-7.19141-14.13574-10.91113-25.792-10.91113H750.35352v115.07227H776.6416c11.65625,0,20.08887-3.71973,25.792-10.91211,6.44824-7.68848,7.19238-18.84863,7.19238-46.624C809.626,990.21289,808.88184,979.05273,802.43359,971.36426Z"/></svg>