<svg id="17cdb6c8-c0c6-4df0-9522-cf9cbd1e705f" data-name="Calque 1" xmlns="http://www.w3.org/2000/svg" width="1000" height="1206" viewBox="0 0 1000 1206"><title>Resin Code Alt</title><path d="M880.7341,630.30843,822.96219,530.2458l-74.37944,42.94348,57.77191,100.06214c14.65023,25.37569,4.88018,47.97865-.001,56.43205C801.47351,738.13687,786.95886,758,757.6584,758H550V714.65332l-148.75889,85.886L550,886.42528V843H757.6584c51.377,0,97.38574-26.32251,123.07474-70.816C906.42213,727.68994,906.42213,674.80341,880.7341,630.30843Z"/><path d="M376.92487,184.03227,319.15314,284.09493l74.379,42.94323,57.77215-100.0629c14.65046-25.37508,38.93483-28.1153,48.69584-28.11456,9.76095-.00034,34.04576,2.73889,48.69647,28.11468L652.73233,407.17051l-37.34058,21.47162L764,514.52811v-171.772l-37.03887,21.47137L623.00075,184.03239c-25.689-44.49464-71.66129-71.0582-123.03825-71.05767C448.585,112.9744,402.6129,139.53818,376.92487,184.03227Z"/><path d="M242.34191,843H358V758H242.34191c-29.30069,0-43.81508-19.86326-48.69584-28.31632s-14.65044-30.95566-.00021-56.3306l104.10005-180.246L335,514.52829v-171.772l-148.823,85.886,37.15741,21.47134L119.28244,630.3092c-25.68851,44.4938-25.69667,97.37991-.0078,141.87448C144.96309,816.678,190.96446,843,242.34191,843Z"/><path d="M432.792,642.498c-28.76855,0-53.81543-18.84863-53.81543-52.57617V515.52148c0-33.72852,25.04688-52.57617,53.81543-52.57617s53.56836,18.84766,53.56836,52.57617v74.40039C486.36035,623.64941,461.56055,642.498,432.792,642.498Zm21.32813-126.48047c0-14.88086-8.43164-24.05664-21.32812-24.05664-12.89551,0-21.5752,9.17578-21.5752,24.05664v73.65625c0,14.87988,8.67969,23.80762,21.5752,23.80762,12.89648,0,21.32813-8.92773,21.32813-23.80762Z"/><path d="M606.88867,628.11328c-7.93555,7.93652-20.584,14.38477-38.93652,14.38477s-31.74414-6.44824-39.43262-14.13672c-10.91211-10.91211-13.3916-23.80762-14.38281-36.7041H546.376c1.73633,13.88867,8.18457,21.82422,21.57617,21.82422,6.2002,0,11.4082-1.73535,15.376-5.7041,5.7041-5.7041,6.94434-15.12793,6.94434-26.28809,0-20.33594-5.95215-31.74414-21.57617-31.74414-13.14355,0-19.09668,7.44043-21.32812,14.38477h-29.5127V464.43262H618.54492v29.0166h-71.4248v37.94434c4.71191-4.46387,14.63184-8.92871,26.53613-8.92871,14.63281,0,25.792,4.71289,32.98438,11.9043,13.8877,13.88867,15.87207,30.50391,15.87207,47.12012C622.5127,601.3291,619.78516,615.21777,606.88867,628.11328Z"/><path d="M433.291,1039.51367H399.31445v66.46387H364.8418V929.40039H433.291c36.70313,0,58.2793,25.04883,58.2793,55.05664S469.99414,1039.51367,433.291,1039.51367Zm-1.73633-79.36035H399.31445v48.35937h32.24023c15.624,0,25.54395-9.67187,25.54395-24.05566S447.17871,960.15332,431.55469,960.15332Z"/><path d="M589.03223,1039.51367H555.05664v66.46387H520.584V929.40039h68.44824c36.7041,0,58.28027,25.04883,58.28027,55.05664S625.73633,1039.51367,589.03223,1039.51367Zm-1.73535-79.36035H555.05664v48.35937h32.24023c15.623,0,25.543-9.67187,25.543-24.05566S602.91992,960.15332,587.29688,960.15332Z"/></svg>