<svg id="d7f131f6-8fbd-45a8-af89-ba682ca4f9bf" data-name="Calque 1" xmlns="http://www.w3.org/2000/svg" width="1000" height="1206.3" viewBox="0 0 1000 1206.3"><title>Resin Code Alt</title><path d="M880.7341,630.90843,822.96219,530.8458l-74.37944,42.94348,57.77191,100.06214c14.65023,25.37569,4.88018,47.82865-.001,56.28205C801.47351,738.58687,786.95886,758.3,757.6584,758.3H550V715.25332l-148.75889,85.886L550,887.02528V844.3H757.6584c51.377,0,97.38574-26.67251,123.07474-71.166A140.87281,140.87281,0,0,0,880.7341,630.90843Z"/><path d="M376.92487,184.63227,319.15314,284.69493l74.379,42.94323,57.77215-100.0629c14.65046-25.37508,38.93483-28.1153,48.69584-28.11456,9.76095-.00034,34.04576,2.73889,48.69647,28.11468L652.73233,407.77051l-37.34058,21.47162L764,515.12811v-171.772l-37.03887,21.47137L623.00075,184.63239c-25.689-44.49464-71.66129-71.0582-123.03825-71.05767C448.585,113.5744,402.6129,140.13818,376.92487,184.63227Z"/><path d="M242.34191,844.3H358v-86H242.34191c-29.30069,0-43.81508-19.71326-48.69584-28.16632s-14.65044-30.88066-.00021-56.2556L297.74591,493.66958,335,515.12829v-171.772l-148.823,85.886,37.15741,21.47134L119.28244,630.9092a140.87,140.87,0,0,0-.0078,142.22448C144.96309,817.628,190.96446,844.3,242.34191,844.3Z"/><path d="M432.792,643.09785c-28.76855,0-53.81543-18.84863-53.81543-52.57617V516.12129c0-33.72852,25.04688-52.57617,53.81543-52.57617s53.56836,18.84766,53.56836,52.57617v74.40039C486.36035,624.24922,461.56055,643.09785,432.792,643.09785Zm21.32813-126.48047c0-14.88086-8.43164-24.05664-21.32812-24.05664-12.89551,0-21.5752,9.17578-21.5752,24.05664v73.65625c0,14.87988,8.67969,23.80762,21.5752,23.80762,12.89648,0,21.32813-8.92773,21.32813-23.80762Z"/><path d="M566.96094,643.09785c-31.249,0-55.05664-19.59277-55.05664-54.56055,0-16.12012,6.94336-31,14.87988-47.12012l37.2002-76.38477H599.2002l-36.7041,72.91309a34.92667,34.92667,0,0,1,13.14453-2.23242c23.80762,0,46.376,19.5918,46.376,52.32813C622.0166,622.76191,598.209,643.09785,566.96094,643.09785Zm0-80.60059c-13.14453,0-22.81641,9.42383-22.81641,25.792s9.67188,25.792,22.81641,25.792c13.14355,0,22.81543-9.42383,22.81543-25.792C589.77637,572.66523,580.60059,562.49727,566.96094,562.49727Z"/><path d="M437.87891,1040.11348H403.90234v66.46387H369.43066V930.0002h68.44824c36.7041,0,58.28027,25.04883,58.28027,55.05664S474.583,1040.11348,437.87891,1040.11348Zm-1.73633-79.36035H403.90234v48.35938h32.24023c15.625,0,25.54492-9.67187,25.54492-24.05566S451.76758,960.75313,436.14258,960.75313Z"/><path d="M573.78125,1108.06563c-26.78516,0-47.12109-5.7041-64.48047-23.3125l22.32031-22.32031c11.16016,11.16016,26.28711,14.88086,42.4082,14.88086,20.584,0,31.49609-7.93652,31.49609-22.07227,0-5.95215-1.73633-10.91211-5.457-14.63281-3.47168-3.22363-6.94336-4.71191-15.87109-5.95117l-21.08008-3.22461c-15.625-2.23145-26.28906-6.94336-34.22461-14.63184-8.43164-8.18359-12.64844-19.83984-12.64844-34.71973,0-31.49707,23.3125-53.56836,61.50391-53.56836,24.30469,0,41.91309,5.95215,57.041,20.584L612.96484,970.673c-10.91211-10.66406-24.55273-12.15234-36.208-12.15234-18.35254,0-27.03223,10.168-27.03223,22.32031,0,4.71191,1.24023,9.17578,4.96,12.64746,3.47168,3.22461,8.68066,5.7041,16.12012,6.69629l21.08008,3.22363c16.12012,2.23242,26.04,6.44824,33.72852,13.88867,9.42383,8.67969,13.63965,21.32813,13.63965,37.2002C639.25293,1088.7209,610.98047,1108.06563,573.78125,1108.06563Z"/></svg>