<svg id="70b671a1-8dae-4f68-b68b-60f803bbd5a8" data-name="Calque 1" xmlns="http://www.w3.org/2000/svg" width="1000" height="1206" viewBox="0 0 1000 1206"><title>Resin Code Alt</title><path d="M880.7341,630.60843,822.96219,530.5458l-74.37944,42.94348,57.77191,100.06214c14.65023,25.37569,4.88018,47.82865-.001,56.28205C801.47351,738.28687,786.95886,758,757.6584,758H550V714.95332l-148.75889,85.886L550,886.72528V844H757.6584c51.377,0,97.38574-26.67251,123.07474-71.166A140.87281,140.87281,0,0,0,880.7341,630.60843Z"/><path d="M376.92487,184.33227,319.15314,284.39493l74.379,42.94323,57.77215-100.0629c14.65046-25.37508,38.93483-28.1153,48.69584-28.11456,9.76095-.00034,34.04576,2.73889,48.69647,28.11468L652.73233,407.47051l-37.34058,21.47162L764,514.82811v-171.772l-37.03887,21.47137L623.00075,184.33239c-25.689-44.49464-71.66129-71.0582-123.03825-71.05767C448.585,113.2744,402.6129,139.83818,376.92487,184.33227Z"/><path d="M242.34191,844H358V758H242.34191c-29.30069,0-43.81508-19.71326-48.69584-28.16632s-14.65044-30.88066-.00021-56.2556L297.74591,493.36958,335,514.82829v-171.772l-148.823,85.886,37.15741,21.47134L119.28244,630.6092a140.87,140.87,0,0,0-.0078,142.22448C144.96309,817.328,190.96446,844,242.34191,844Z"/><path d="M432.792,642.79785c-28.76855,0-53.81543-18.84863-53.81543-52.57617V515.82129c0-33.72852,25.04688-52.57617,53.81543-52.57617s53.56836,18.84766,53.56836,52.57617v74.40039C486.36035,623.94922,461.56055,642.79785,432.792,642.79785Zm21.32813-126.48047c0-14.88086-8.43164-24.05664-21.32812-24.05664-12.89551,0-21.5752,9.17578-21.5752,24.05664v73.65625c0,14.87988,8.67969,23.80762,21.5752,23.80762,12.89648,0,21.32813-8.92773,21.32813-23.80762Z"/><path d="M567.45605,641.30957H532.48828L589.77637,493.749h-46.624v27.77637h-30.752v-56.793H624.74414V493.749Z"/><path d="M547.12109,1089.165c-11.9043,11.9043-26.78418,18.60059-47.12012,18.60059s-35.46387-6.69629-47.36816-18.60059c-17.6084-17.60742-17.85645-37.44824-17.85645-71.17578,0-33.72852.248-53.56836,17.85645-71.17676,11.9043-11.9043,27.03223-18.59961,47.36816-18.59961s35.21582,6.69531,47.12012,18.59961c17.60742,17.6084,18.10352,37.44824,18.10352,71.17676C565.22461,1051.7168,564.72852,1071.55762,547.12109,1089.165ZM522.07227,968.38867c-4.959-5.7041-12.64746-9.42383-22.07129-9.42383a29.60183,29.60183,0,0,0-22.32031,9.42383c-6.44824,7.44043-8.43262,15.87207-8.43262,49.60059,0,33.72754,1.98438,41.91211,8.43262,49.35156a29.77624,29.77624,0,0,0,22.32031,9.67285,28.82424,28.82424,0,0,0,22.07129-9.67285c6.44922-7.43945,8.68066-15.624,8.68066-49.35156C530.75293,984.26074,528.52148,975.8291,522.07227,968.38867Z"/></svg>