<svg width="586" height="643" viewBox="0 0 586 643" fill="none" xmlns="http://www.w3.org/2000/svg">
<mask id="path-1-outside-1_480_28" maskUnits="userSpaceOnUse" x="117" y="130.224" width="373" height="470" fill="black">
<rect fill="white" x="117" y="130.224" width="373" height="470"/>
<path fill-rule="evenodd" clip-rule="evenodd" d="M127.966 170.518L127.751 167.515C124.969 166.492 123 163.961 123 161C123 158.969 123.927 157.14 125.408 155.861C124.74 155.331 125.007 154.242 125.864 154.095L133.518 152.783C138.486 151.931 143.542 151.709 148.566 152.121L152.354 152.433L174.014 149.242C174.005 149.162 174 149.082 174 149C174 147.896 174.896 147 176 147C176.988 147 177.809 147.717 177.971 148.659L210.001 143.94C210.033 142.863 210.916 142 212 142C212.883 142 213.632 142.572 213.897 143.366L242.012 139.224C242.004 139.151 242 139.076 242 139C242 137.896 242.896 137 244 137C244.982 137 245.799 137.708 245.968 138.641L248.674 138.243C249.54 136.902 251.153 136 253 136C254.264 136 255.419 136.423 256.3 137.119L256.459 137.096C256.486 136.953 256.5 136.805 256.5 136.654C256.5 135.983 256.974 135.406 257.632 135.274L264.388 133.923C267.45 133.31 270.578 133.099 273.694 133.294L282.711 133.857C284.051 133.941 285.156 134.938 285.377 136.262C285.449 136.696 285.807 137.026 286.246 137.063L312.133 139.22C330.35 140.738 348.419 143.681 366.176 148.021L407 158L410.409 158.426C410.802 158.476 411.192 158.554 411.574 158.661L419.611 160.912C422.196 161.635 424.691 162.645 427.051 163.924L435.008 168.234C435.335 168.411 435.684 168.541 436.046 168.622L439.782 169.452C439.927 169.484 440.068 169.532 440.202 169.596L455.43 176.787C457.057 177.555 458.253 179.012 458.689 180.757L460 186L484.977 192.127C485.871 192.346 486.5 193.148 486.5 194.069V209.649C486.5 214.258 483.35 218.27 478.873 219.363L446.984 227.151L415.797 528.791C415.297 533.627 412.485 537.921 408.251 540.311L320.339 589.938C302.605 599.95 280.571 598.205 264.633 585.527L203 536.501L199.311 506.035L197.533 503.546C195.122 511.98 190.508 516.957 184.726 518.131C184.133 518.412 183.525 518.647 182.9 518.835C176.209 523.699 166.748 521.749 157.115 512.115C141.115 496.115 130.697 464.98 133.846 442.573C135.452 431.15 140.273 424.201 146.733 422.252C148.315 421.102 150.051 420.333 151.908 419.956C158.394 416.876 166.887 419.34 175.519 427.971C176.384 428.836 177.232 429.745 178.063 430.694L163.287 258.193C162.767 252.118 161.324 246.158 159.007 240.518C158.122 239.637 157.134 238.86 156.063 238.205L150.19 234.616C144.421 231.091 140.702 225.003 140.199 218.26L138.56 196.309L120 188L120 175.737C120 174.979 120.428 174.286 121.106 173.948L127.966 170.518ZM419.998 169.846C421.961 170.601 424.095 170.801 426.165 170.425C426.969 170.279 427.159 169.211 426.454 168.797L421.353 165.796C420.454 165.268 419.495 164.849 418.497 164.549L411.287 162.387C410.646 162.194 410 162.675 410 163.344V163.94C410 165.181 410.765 166.294 411.923 166.74L419.998 169.846Z"/>
</mask>
<path d="M127.966 170.518L129.307 173.201L131.101 172.304L130.958 170.304L127.966 170.518ZM127.751 167.515L130.744 167.301L130.605 165.369L128.787 164.7L127.751 167.515ZM125.408 155.861L127.369 158.132L130.11 155.764L127.273 153.512L125.408 155.861ZM125.864 154.095L125.357 151.138L125.357 151.138L125.864 154.095ZM133.518 152.783L134.025 155.74L134.025 155.74L133.518 152.783ZM148.566 152.121L148.811 149.132L148.811 149.132L148.566 152.121ZM152.354 152.433L152.109 155.422L152.452 155.451L152.792 155.401L152.354 152.433ZM174.014 149.242L174.452 152.21L177.342 151.784L176.993 148.884L174.014 149.242ZM177.971 148.659L175.014 149.168L175.511 152.053L178.408 151.627L177.971 148.659ZM210.001 143.94L210.438 146.908L212.925 146.542L213 144.029L210.001 143.94ZM213.897 143.366L211.052 144.317L211.849 146.7L214.335 146.334L213.897 143.366ZM242.012 139.224L242.45 142.192L245.314 141.77L244.994 138.892L242.012 139.224ZM245.968 138.641L243.016 139.176L243.534 142.032L246.405 141.609L245.968 138.641ZM248.674 138.243L249.111 141.211L250.457 141.012L251.194 139.87L248.674 138.243ZM256.3 137.119L254.438 139.472L255.455 140.276L256.737 140.087L256.3 137.119ZM256.459 137.096L256.896 140.064L259.007 139.753L259.406 137.657L256.459 137.096ZM257.632 135.274L258.22 138.216L258.22 138.216L257.632 135.274ZM264.388 133.923L263.8 130.981L263.8 130.981L264.388 133.923ZM273.694 133.294L273.881 130.3L273.881 130.3L273.694 133.294ZM282.711 133.857L282.899 130.863L282.899 130.863L282.711 133.857ZM285.377 136.262L288.336 135.769L288.336 135.769L285.377 136.262ZM286.246 137.063L285.997 140.052L285.997 140.052L286.246 137.063ZM312.133 139.22L312.383 136.23L312.383 136.23L312.133 139.22ZM366.176 148.021L366.888 145.107L366.888 145.107L366.176 148.021ZM407 158L406.288 160.915L406.456 160.956L406.628 160.977L407 158ZM410.409 158.426L410.781 155.45L410.781 155.45L410.409 158.426ZM411.574 158.661L412.383 155.772L412.383 155.772L411.574 158.661ZM419.611 160.912L418.802 163.8L418.802 163.8L419.611 160.912ZM427.051 163.924L425.622 166.562L425.622 166.562L427.051 163.924ZM435.008 168.234L433.58 170.872L433.58 170.872L435.008 168.234ZM436.046 168.622L436.697 165.693L436.697 165.693L436.046 168.622ZM439.782 169.452L440.433 166.523L440.433 166.523L439.782 169.452ZM440.202 169.596L441.483 166.883L441.483 166.883L440.202 169.596ZM455.43 176.787L454.149 179.5L454.149 179.5L455.43 176.787ZM458.689 180.757L455.779 181.485L455.779 181.485L458.689 180.757ZM460 186L457.09 186.728L457.528 188.483L459.285 188.914L460 186ZM484.977 192.127L485.691 189.213L485.691 189.213L484.977 192.127ZM478.873 219.363L479.584 222.278L479.584 222.278L478.873 219.363ZM446.984 227.151L446.273 224.236L444.218 224.738L444 226.842L446.984 227.151ZM415.797 528.791L412.813 528.483L412.813 528.483L415.797 528.791ZM408.251 540.311L409.726 542.923L409.726 542.923L408.251 540.311ZM320.339 589.938L321.814 592.551L321.814 592.551L320.339 589.938ZM264.633 585.527L266.501 583.179L266.501 583.179L264.633 585.527ZM203 536.501L200.022 536.861L200.17 538.083L201.133 538.848L203 536.501ZM199.311 506.035L202.289 505.675L202.197 504.915L201.752 504.292L199.311 506.035ZM197.533 503.546L199.974 501.802L196.357 496.739L194.648 502.721L197.533 503.546ZM184.726 518.131L184.129 515.191L183.77 515.264L183.439 515.421L184.726 518.131ZM182.9 518.835L182.034 515.963L181.547 516.11L181.136 516.409L182.9 518.835ZM157.115 512.115L159.236 509.994L159.236 509.994L157.115 512.115ZM133.846 442.573L130.875 442.155L130.875 442.155L133.846 442.573ZM146.733 422.252L147.6 425.124L148.086 424.977L148.497 424.678L146.733 422.252ZM151.908 419.956L152.505 422.896L152.864 422.823L153.195 422.666L151.908 419.956ZM175.519 427.971L177.64 425.85L177.64 425.85L175.519 427.971ZM178.063 430.694L175.805 432.67L181.833 439.557L181.052 430.438L178.063 430.694ZM163.287 258.193L160.298 258.449L160.298 258.449L163.287 258.193ZM159.007 240.518L161.783 239.379L161.553 238.819L161.124 238.392L159.007 240.518ZM156.063 238.205L154.498 240.765L154.498 240.765L156.063 238.205ZM150.19 234.616L151.754 232.057L151.754 232.057L150.19 234.616ZM140.199 218.26L137.207 218.484L137.207 218.484L140.199 218.26ZM138.56 196.309L141.552 196.086L141.419 194.302L139.786 193.571L138.56 196.309ZM120 188L117 188L117 189.944L118.774 190.739L120 188ZM120 175.737L117 175.737L120 175.737ZM121.106 173.948L122.447 176.631L122.447 176.631L121.106 173.948ZM426.165 170.425L426.702 173.377L426.702 173.377L426.165 170.425ZM419.998 169.846L418.921 172.646L418.921 172.646L419.998 169.846ZM426.454 168.797L424.933 171.383L424.933 171.383L426.454 168.797ZM421.353 165.796L422.874 163.21L422.874 163.21L421.353 165.796ZM418.497 164.549L417.635 167.423L417.635 167.423L418.497 164.549ZM411.287 162.387L410.425 165.26L410.425 165.26L411.287 162.387ZM411.923 166.74L410.846 169.54L410.846 169.54L411.923 166.74ZM130.958 170.304L130.744 167.301L124.759 167.729L124.973 170.731L130.958 170.304ZM128.787 164.7C127.046 164.059 126 162.561 126 161H120C120 165.36 122.892 168.924 126.715 170.331L128.787 164.7ZM126 161C126 159.915 126.49 158.891 127.369 158.132L123.447 153.591C121.364 155.389 120 158.023 120 161H126ZM127.273 153.512C128.616 154.578 128.094 156.757 126.371 157.052L125.357 151.138C121.919 151.728 120.863 156.084 123.542 158.211L127.273 153.512ZM126.371 157.052L134.025 155.74L133.011 149.826L125.357 151.138L126.371 157.052ZM134.025 155.74C138.745 154.931 143.548 154.72 148.32 155.111L148.811 149.132C143.536 148.698 138.228 148.932 133.011 149.826L134.025 155.74ZM148.32 155.111L152.109 155.422L152.6 149.443L148.811 149.132L148.32 155.111ZM152.792 155.401L174.452 152.21L173.577 146.274L151.917 149.465L152.792 155.401ZM176.993 148.884C176.998 148.923 177 148.962 177 149H171C171 149.202 171.012 149.402 171.036 149.6L176.993 148.884ZM177 149C177 149.553 176.552 150 176 150V144C173.239 144 171 146.239 171 149H177ZM176 150C175.503 150 175.096 149.641 175.014 149.168L180.928 148.15C180.522 145.793 178.473 144 176 144V150ZM178.408 151.627L210.438 146.908L209.564 140.972L177.534 145.691L178.408 151.627ZM213 144.029C212.984 144.569 212.543 145 212 145V139C209.289 139 207.082 141.158 207.002 143.851L213 144.029ZM212 145C211.554 145 211.184 144.71 211.052 144.317L216.743 142.415C216.081 140.434 214.212 139 212 139V145ZM214.335 146.334L242.45 142.192L241.575 136.256L213.46 140.398L214.335 146.334ZM244.994 138.892C244.998 138.929 245 138.965 245 139H239C239 139.187 239.01 139.372 239.031 139.556L244.994 138.892ZM245 139C245 139.553 244.552 140 244 140V134C241.239 134 239 136.239 239 139H245ZM244 140C243.506 140 243.101 139.645 243.016 139.176L248.92 138.106C248.497 135.771 246.458 134 244 134V140ZM246.405 141.609L249.111 141.211L248.237 135.275L245.531 135.673L246.405 141.609ZM251.194 139.87C251.478 139.43 252.117 139 253 139V133C250.189 133 247.601 134.374 246.154 136.615L251.194 139.87ZM253 139C253.595 139 254.093 139.199 254.438 139.472L258.161 134.766C256.745 133.647 254.934 133 253 133V139ZM256.737 140.087L256.896 140.064L256.021 134.128L255.862 134.151L256.737 140.087ZM259.406 137.657C259.468 137.33 259.5 136.994 259.5 136.654H253.5C253.5 136.616 253.504 136.576 253.512 136.535L259.406 137.657ZM259.5 136.654C259.5 137.413 258.964 138.067 258.22 138.216L257.043 132.332C254.983 132.744 253.5 134.553 253.5 136.654H259.5ZM258.22 138.216L264.977 136.864L263.8 130.981L257.043 132.332L258.22 138.216ZM264.977 136.864C267.783 136.303 270.651 136.109 273.507 136.288L273.881 130.3C270.505 130.089 267.117 130.318 263.8 130.981L264.977 136.864ZM273.507 136.288L282.524 136.851L282.899 130.863L273.881 130.3L273.507 136.288ZM282.524 136.851C282.471 136.848 282.427 136.808 282.418 136.756L288.336 135.769C287.886 133.068 285.632 131.034 282.899 130.863L282.524 136.851ZM282.418 136.755C282.716 138.544 284.19 139.902 285.997 140.052L286.495 134.073C287.424 134.15 288.183 134.849 288.336 135.769L282.418 136.755ZM285.997 140.052L311.884 142.209L312.383 136.23L286.495 134.073L285.997 140.052ZM311.884 142.209C329.945 143.714 347.859 146.632 365.464 150.935L366.888 145.107C348.98 140.729 330.755 137.761 312.383 136.23L311.884 142.209ZM365.464 150.935L406.288 160.915L407.712 155.086L366.888 145.107L365.464 150.935ZM406.628 160.977L410.037 161.403L410.781 155.45L407.372 155.024L406.628 160.977ZM410.037 161.403C410.283 161.434 410.526 161.483 410.765 161.55L412.383 155.772C411.857 155.625 411.322 155.517 410.781 155.45L410.037 161.403ZM410.765 161.55L418.802 163.8L420.42 158.023L412.383 155.772L410.765 161.55ZM418.802 163.8C421.171 164.464 423.459 165.39 425.622 166.562L428.48 161.286C425.923 159.901 423.22 158.807 420.42 158.023L418.802 163.8ZM425.622 166.562L433.58 170.872L436.437 165.596L428.48 161.286L425.622 166.562ZM433.58 170.872C434.15 171.181 434.761 171.409 435.395 171.55L436.697 165.693C436.606 165.673 436.519 165.64 436.437 165.596L433.58 170.872ZM435.395 171.55L439.131 172.38L440.433 166.523L436.697 165.693L435.395 171.55ZM439.131 172.38C439.059 172.364 438.988 172.34 438.921 172.309L441.483 166.883C441.147 166.724 440.795 166.604 440.433 166.523L439.131 172.38ZM438.921 172.309L454.149 179.5L456.711 174.074L441.483 166.883L438.921 172.309ZM454.149 179.5C454.963 179.884 455.561 180.612 455.779 181.485L461.6 180.03C460.945 177.412 459.151 175.226 456.711 174.074L454.149 179.5ZM455.779 181.485L457.09 186.728L462.91 185.273L461.6 180.03L455.779 181.485ZM459.285 188.914L484.262 195.04L485.691 189.213L460.715 183.087L459.285 188.914ZM484.262 195.04C483.815 194.931 483.5 194.53 483.5 194.069H489.5C489.5 191.766 487.928 189.762 485.691 189.213L484.262 195.04ZM483.5 194.069V209.649H489.5V194.069H483.5ZM483.5 209.649C483.5 212.875 481.295 215.683 478.161 216.449L479.584 222.278C485.405 220.856 489.5 215.64 489.5 209.649H483.5ZM478.161 216.449L446.273 224.236L447.696 230.065L479.584 222.278L478.161 216.449ZM444 226.842L412.813 528.483L418.781 529.1L449.969 227.459L444 226.842ZM412.813 528.483C412.413 532.351 410.163 535.786 406.776 537.698L409.726 542.923C414.806 540.055 418.181 534.903 418.781 529.1L412.813 528.483ZM406.776 537.698L318.865 587.326L321.814 592.551L409.726 542.923L406.776 537.698ZM318.865 587.326C302.194 596.736 281.482 595.096 266.501 583.179L262.766 587.875C279.66 601.313 303.016 603.163 321.814 592.551L318.865 587.326ZM266.501 583.179L204.868 534.153L201.133 538.848L262.766 587.875L266.501 583.179ZM205.978 536.14L202.289 505.675L196.332 506.396L200.022 536.861L205.978 536.14ZM201.752 504.292L199.974 501.802L195.091 505.289L196.87 507.779L201.752 504.292ZM194.648 502.721C192.411 510.549 188.405 514.323 184.129 515.191L185.322 521.071C192.611 519.592 197.833 513.411 200.417 504.37L194.648 502.721ZM183.439 515.421C182.982 515.638 182.513 515.818 182.034 515.963L183.767 521.707C184.536 521.475 185.285 521.186 186.012 520.841L183.439 515.421ZM181.136 516.409C178.57 518.275 175.455 518.891 171.828 517.999C168.116 517.086 163.804 514.563 159.236 509.994L154.993 514.237C160.059 519.302 165.294 522.571 170.394 523.825C175.579 525.1 180.54 524.26 184.664 521.262L181.136 516.409ZM159.236 509.994C151.651 502.409 145.252 491.071 141.144 478.795C137.037 466.519 135.324 453.613 136.817 442.99L130.875 442.155C129.219 453.94 131.141 467.806 135.455 480.699C139.769 493.592 146.579 505.822 154.993 514.237L159.236 509.994ZM136.817 442.99C138.356 432.039 142.799 426.572 147.6 425.124L145.867 419.38C137.747 421.829 132.547 430.261 130.875 442.155L136.817 442.99ZM148.497 424.678C149.741 423.774 151.081 423.185 152.505 422.896L151.311 417.016C149.021 417.481 146.889 418.43 144.969 419.825L148.497 424.678ZM153.195 422.666C157.964 420.402 165.114 421.809 173.398 430.093L177.64 425.85C168.661 416.871 158.825 413.351 150.621 417.246L153.195 422.666ZM173.398 430.093C174.213 430.908 175.016 431.768 175.805 432.67L180.32 428.719C179.448 427.722 178.554 426.764 177.64 425.85L173.398 430.093ZM181.052 430.438L166.277 257.937L160.298 258.449L175.074 430.95L181.052 430.438ZM166.277 257.937C165.73 251.559 164.215 245.3 161.783 239.379L156.232 241.658C158.433 247.016 159.804 252.678 160.298 258.449L166.277 257.937ZM161.124 238.392C160.073 237.346 158.9 236.423 157.627 235.646L154.498 240.765C155.369 241.297 156.172 241.929 156.891 242.645L161.124 238.392ZM157.627 235.646L151.754 232.057L148.626 237.176L154.498 240.765L157.627 235.646ZM151.754 232.057C146.809 229.035 143.622 223.816 143.19 218.037L137.207 218.484C137.782 226.189 142.032 233.147 148.626 237.176L151.754 232.057ZM143.19 218.037L141.552 196.086L135.569 196.533L137.207 218.484L143.19 218.037ZM139.786 193.571L121.226 185.262L118.774 190.739L137.335 199.048L139.786 193.571ZM123 188L123 175.737L117 175.737L117 188L123 188ZM123 175.737C123 176.115 122.786 176.462 122.447 176.631L119.764 171.264C118.07 172.111 117 173.843 117 175.737L123 175.737ZM122.447 176.631L129.307 173.201L126.624 167.834L119.764 171.264L122.447 176.631ZM425.628 167.473C424.1 167.751 422.525 167.603 421.075 167.046L418.921 172.646C421.398 173.599 424.09 173.851 426.702 173.377L425.628 167.473ZM424.933 171.383C423.241 170.387 423.697 167.825 425.628 167.473L426.702 173.377C430.242 172.733 431.077 168.036 427.975 166.211L424.933 171.383ZM419.832 168.382L424.933 171.383L427.975 166.211L422.874 163.21L419.832 168.382ZM417.635 167.423C418.403 167.653 419.14 167.975 419.832 168.382L422.874 163.21C421.768 162.56 420.588 162.045 419.359 161.676L417.635 167.423ZM410.425 165.26L417.635 167.423L419.359 161.676L412.149 159.513L410.425 165.26ZM413 163.344C413 164.684 411.709 165.645 410.425 165.26L412.149 159.513C409.583 158.743 407 160.665 407 163.344H413ZM413 163.94V163.344H407V163.94H413ZM413 163.94L413 163.94H407C407 166.423 408.529 168.649 410.846 169.54L413 163.94ZM421.075 167.046L413 163.94L410.846 169.54L418.921 172.646L421.075 167.046Z" fill="white" mask="url(#path-1-outside-1_480_28)"/>
<ellipse cx="130.5" cy="161" rx="7.5" ry="7" fill="url(#paint0_linear_480_28)"/>
<ellipse cx="253" cy="140.5" rx="5" ry="4.5" fill="url(#paint1_linear_480_28)"/>
<circle cx="176" cy="149" r="2" fill="url(#paint2_linear_480_28)"/>
<circle cx="212" cy="144" r="2" fill="url(#paint3_linear_480_28)"/>
<circle cx="244" cy="139" r="2" fill="url(#paint4_linear_480_28)"/>
<path d="M155.5 232L230 303L225 542L182.5 482.5L163.287 258.193C162.766 252.1 161.315 246.123 158.987 240.468L155.5 232Z" fill="url(#paint5_linear_480_28)"/>
<path fill-rule="evenodd" clip-rule="evenodd" d="M146.733 422.251C140.273 424.2 135.451 431.15 133.846 442.572C130.697 464.98 141.115 496.115 157.115 512.115C166.748 521.749 176.209 523.699 182.9 518.835C183.524 518.647 184.133 518.412 184.726 518.13C191.774 516.7 197.086 509.619 198.787 497.514C201.937 475.107 191.519 443.971 175.519 427.971C166.887 419.339 158.394 416.876 151.908 419.956C150.051 420.333 148.315 421.102 146.733 422.251Z" fill="url(#paint6_linear_480_28)"/>
<path d="M148.5 153L260.5 136.5V138.5L155.5 157L148.5 153Z" fill="url(#paint7_linear_480_28)"/>
<path fill-rule="evenodd" clip-rule="evenodd" d="M462.5 196L291 234L128.5 178L127.034 157.469C127.012 157.172 126.86 156.9 126.617 156.727L125.452 155.894C124.729 155.378 124.988 154.245 125.864 154.095L133.518 152.783C138.486 151.931 143.542 151.709 148.565 152.121L157 152.814L253.458 139.006C253.486 139.002 253.514 139 253.542 139H254.154C255.45 139 256.5 137.95 256.5 136.654V136.654C256.5 135.983 256.974 135.405 257.632 135.274L264.388 133.922C267.45 133.31 270.578 133.099 273.694 133.293L282.711 133.857C284.051 133.941 285.156 134.938 285.377 136.262V136.262C285.449 136.696 285.807 137.026 286.246 137.062L312.133 139.219C330.35 140.737 348.419 143.68 366.176 148.021L407 158L410.409 158.426C410.802 158.475 411.192 158.554 411.574 158.661L419.611 160.911C422.196 161.635 424.691 162.645 427.051 163.923L435.008 168.234C435.335 168.41 435.684 168.541 436.046 168.621L439.782 169.452C439.927 169.484 440.068 169.532 440.202 169.595L455.43 176.787C457.057 177.555 458.253 179.012 458.689 180.757L462.5 196ZM426.165 170.425C424.095 170.801 421.961 170.601 419.998 169.845L411.923 166.74C410.764 166.294 410 165.181 410 163.94V163.344C410 162.674 410.646 162.194 411.287 162.386L418.497 164.549C419.495 164.849 420.454 165.267 421.353 165.796L426.454 168.797C427.159 169.211 426.969 170.278 426.165 170.425V170.425Z" fill="url(#paint8_linear_480_28)"/>
<path d="M138.5 195.5L275.631 256.647C285.602 261.093 296.755 262.154 307.385 259.666L447 227L415.797 528.791C415.297 533.627 412.484 537.921 408.251 540.311L320.339 589.938C302.605 599.949 280.571 598.204 264.633 585.527L203 536.5L170.429 267.542C170.143 265.184 169.69 262.849 169.072 260.555L168.701 259.174C167.244 253.763 164.888 248.636 161.731 244.006L160.939 242.844C159.661 240.969 157.999 239.388 156.063 238.205L150.19 234.616C144.421 231.09 140.702 225.002 140.198 218.26L138.5 195.5Z" fill="url(#paint9_linear_480_28)"/>
<path d="M486.5 209.648C486.5 214.257 483.35 218.269 478.872 219.363L311.646 260.202C298.912 263.312 285.505 262.093 273.541 256.737L120 188L120 175.736C120 174.979 120.428 174.286 121.106 173.947L128 170.5L128.668 175.511C128.871 177.033 129.927 178.304 131.386 178.783L266.419 223.104C283.175 228.603 301.086 229.574 318.338 225.918L453.476 197.277C457.027 196.524 459.626 193.475 459.807 189.85L460 186L484.976 192.126C485.871 192.346 486.5 193.148 486.5 194.069L486.5 209.648Z" fill="url(#paint10_linear_480_28)"/>
<defs>
<linearGradient id="paint0_linear_480_28" x1="130.5" y1="154" x2="130.5" y2="168" gradientUnits="userSpaceOnUse">
<stop/>
<stop offset="1" stop-color="#666666"/>
</linearGradient>
<linearGradient id="paint1_linear_480_28" x1="253" y1="136" x2="253" y2="145" gradientUnits="userSpaceOnUse">
<stop/>
<stop offset="1" stop-color="#666666"/>
</linearGradient>
<linearGradient id="paint2_linear_480_28" x1="176" y1="147" x2="176" y2="151" gradientUnits="userSpaceOnUse">
<stop/>
<stop offset="1" stop-color="#666666"/>
</linearGradient>
<linearGradient id="paint3_linear_480_28" x1="212" y1="142" x2="212" y2="146" gradientUnits="userSpaceOnUse">
<stop/>
<stop offset="1" stop-color="#666666"/>
</linearGradient>
<linearGradient id="paint4_linear_480_28" x1="244" y1="137" x2="244" y2="141" gradientUnits="userSpaceOnUse">
<stop/>
<stop offset="1" stop-color="#666666"/>
</linearGradient>
<linearGradient id="paint5_linear_480_28" x1="192.75" y1="232" x2="192.75" y2="542" gradientUnits="userSpaceOnUse">
<stop stop-color="#038B00"/>
<stop offset="1" stop-color="#025500"/>
</linearGradient>
<linearGradient id="paint6_linear_480_28" x1="172.519" y1="428.971" x2="126.245" y2="475.245" gradientUnits="userSpaceOnUse">
<stop/>
<stop offset="1" stop-color="#333333"/>
</linearGradient>
<linearGradient id="paint7_linear_480_28" x1="204.5" y1="136.5" x2="204.5" y2="157" gradientUnits="userSpaceOnUse">
<stop/>
<stop offset="1" stop-color="#666666"/>
</linearGradient>
<linearGradient id="paint8_linear_480_28" x1="293" y1="133" x2="293" y2="234" gradientUnits="userSpaceOnUse">
<stop stop-color="#FFE600"/>
<stop offset="1" stop-color="#D7B500"/>
</linearGradient>
<linearGradient id="paint9_linear_480_28" x1="431.375" y1="211.375" x2="154.625" y2="488.125" gradientUnits="userSpaceOnUse">
<stop stop-color="#03A700"/>
<stop offset="1" stop-color="#036E01"/>
</linearGradient>
<linearGradient id="paint10_linear_480_28" x1="396.625" y1="102.625" x2="215.625" y2="283.625" gradientUnits="userSpaceOnUse">
<stop stop-color="#038B00"/>
<stop offset="1" stop-color="#025500"/>
</linearGradient>
</defs>
</svg>
