<svg width="1084" height="1297" viewBox="0 0 1084 1297" fill="none" xmlns="http://www.w3.org/2000/svg">
<g filter="url(#filter0_di_443_53)">
<mask id="path-1-inside-1_443_53" fill="white">
<path fill-rule="evenodd" clip-rule="evenodd" d="M364.779 673.002L315.896 757.67L315.905 757.675C315.728 757.968 315.554 758.263 315.382 758.561C309.119 769.408 307.146 781.525 308.947 792.866C298.224 796.978 288.718 804.745 282.455 815.592L238 892.59C224.193 916.505 232.387 947.084 256.301 960.892L429.506 1060.89C453.421 1074.7 484.001 1066.5 497.808 1042.59L546.706 957.896C550.211 949.01 551.13 939.608 549.714 930.686C558.149 927.451 565.832 921.955 571.774 914.476L629.023 815.318C632.529 806.432 633.447 797.03 632.031 788.108C640.466 784.873 648.149 779.377 654.092 771.898L706.71 680.761C710.215 671.875 711.134 662.473 709.718 653.551C718.153 650.316 725.836 644.819 731.779 637.341L810.308 501.324C861.202 413.173 879.515 321.125 864.461 257.529L907.856 182.366L777.952 107.366L734.557 182.529C671.954 201.29 601.394 263.173 550.5 351.324L475.9 480.535L475.909 480.54C475.732 480.833 475.557 481.129 475.385 481.427C469.123 492.274 467.15 504.39 468.95 515.732C458.228 519.844 448.721 527.611 442.459 538.457L398.213 615.093L398.222 615.098C398.048 615.387 397.876 615.678 397.706 615.971L397.691 615.997C391.435 626.84 389.464 638.952 391.264 650.289C380.545 654.399 371.042 662.162 364.779 673.002Z"/>
</mask>
<path fill-rule="evenodd" clip-rule="evenodd" d="M364.779 673.002L315.896 757.67L315.905 757.675C315.728 757.968 315.554 758.263 315.382 758.561C309.119 769.408 307.146 781.525 308.947 792.866C298.224 796.978 288.718 804.745 282.455 815.592L238 892.59C224.193 916.505 232.387 947.084 256.301 960.892L429.506 1060.89C453.421 1074.7 484.001 1066.5 497.808 1042.59L546.706 957.896C550.211 949.01 551.13 939.608 549.714 930.686C558.149 927.451 565.832 921.955 571.774 914.476L629.023 815.318C632.529 806.432 633.447 797.03 632.031 788.108C640.466 784.873 648.149 779.377 654.092 771.898L706.71 680.761C710.215 671.875 711.134 662.473 709.718 653.551C718.153 650.316 725.836 644.819 731.779 637.341L810.308 501.324C861.202 413.173 879.515 321.125 864.461 257.529L907.856 182.366L777.952 107.366L734.557 182.529C671.954 201.29 601.394 263.173 550.5 351.324L475.9 480.535L475.909 480.54C475.732 480.833 475.557 481.129 475.385 481.427C469.123 492.274 467.15 504.39 468.95 515.732C458.228 519.844 448.721 527.611 442.459 538.457L398.213 615.093L398.222 615.098C398.048 615.387 397.876 615.678 397.706 615.971L397.691 615.997C391.435 626.84 389.464 638.952 391.264 650.289C380.545 654.399 371.042 662.162 364.779 673.002Z" fill="#F5F5F5" fill-opacity="0.5" shape-rendering="crispEdges"/>
<path d="M315.896 757.67L311.566 755.17L309.066 759.5L313.396 762L315.896 757.67ZM364.779 673.002L360.45 670.501L360.449 670.502L364.779 673.002ZM315.905 757.675L320.187 760.257L322.818 755.893L318.405 753.345L315.905 757.675ZM308.947 792.866L310.737 797.535L314.52 796.084L313.885 792.083L308.947 792.866ZM546.706 957.896L551.036 960.396L551.221 960.075L551.357 959.731L546.706 957.896ZM549.714 930.686L547.924 926.018L544.141 927.468L544.776 931.47L549.714 930.686ZM571.774 914.476L575.689 917.587L575.919 917.297L576.104 916.976L571.774 914.476ZM629.023 815.318L633.354 817.818L633.539 817.497L633.675 817.153L629.023 815.318ZM632.031 788.108L630.241 783.44L626.458 784.89L627.093 788.892L632.031 788.108ZM654.092 771.898L658.006 775.009L658.237 774.719L658.422 774.398L654.092 771.898ZM706.71 680.761L711.04 683.261L711.225 682.94L711.361 682.595L706.71 680.761ZM709.718 653.551L707.928 648.882L704.145 650.333L704.78 654.334L709.718 653.551ZM731.779 637.341L735.693 640.451L735.924 640.162L736.109 639.841L731.779 637.341ZM864.461 257.529L860.131 255.029L859.138 256.748L859.595 258.68L864.461 257.529ZM907.856 182.366L912.186 184.866L914.686 180.536L910.356 178.036L907.856 182.366ZM777.952 107.366L780.452 103.036L776.122 100.536L773.622 104.866L777.952 107.366ZM734.557 182.529L735.992 187.318L737.894 186.748L738.887 185.029L734.557 182.529ZM475.9 480.535L471.57 478.035L469.07 482.365L473.4 484.865L475.9 480.535ZM475.909 480.54L480.19 483.122L482.822 478.758L478.409 476.21L475.909 480.54ZM468.95 515.732L470.74 520.401L474.523 518.95L473.888 514.948L468.95 515.732ZM442.459 538.457L438.129 535.957L438.129 535.957L442.459 538.457ZM398.213 615.093L393.883 612.593L391.383 616.923L395.713 619.423L398.213 615.093ZM398.222 615.098L402.503 617.68L405.135 613.316L400.722 610.768L398.222 615.098ZM397.706 615.971L393.377 613.47L393.376 613.471L397.706 615.971ZM397.691 615.997L393.361 613.497L393.361 613.498L397.691 615.997ZM391.264 650.289L393.054 654.958L396.837 653.507L396.202 649.505L391.264 650.289ZM320.226 760.17L369.109 675.502L360.449 670.502L311.566 755.17L320.226 760.17ZM318.405 753.345L318.396 753.34L313.396 762L313.405 762.005L318.405 753.345ZM319.712 761.061C319.868 760.791 320.026 760.523 320.187 760.257L311.623 755.093C311.43 755.413 311.24 755.736 311.052 756.061L319.712 761.061ZM313.885 792.083C312.26 781.845 314.036 770.892 319.712 761.061L311.052 756.061C304.202 767.924 302.033 781.204 304.009 793.65L313.885 792.083ZM286.785 818.092C292.461 808.261 301.059 801.246 310.737 797.535L307.156 788.198C295.39 792.71 284.974 801.229 278.125 813.092L286.785 818.092ZM242.33 895.09L286.785 818.092L278.125 813.092L233.67 890.09L242.33 895.09ZM258.801 956.561C237.278 944.135 229.904 916.613 242.33 895.09L233.67 890.09C218.482 916.396 227.495 950.034 253.801 965.222L258.801 956.561ZM432.006 1056.56L258.801 956.561L253.801 965.222L427.006 1065.22L432.006 1056.56ZM493.478 1040.09C481.051 1061.61 453.53 1068.99 432.006 1056.56L427.006 1065.22C453.312 1080.41 486.95 1071.4 502.138 1045.09L493.478 1040.09ZM542.376 955.396L493.478 1040.09L502.138 1045.09L551.036 960.396L542.376 955.396ZM544.776 931.47C546.054 939.525 545.226 948.022 542.055 956.061L551.357 959.731C555.196 949.998 556.206 939.691 554.652 929.902L544.776 931.47ZM567.86 911.366C562.483 918.132 555.539 923.097 547.924 926.018L551.504 935.355C560.759 931.806 569.18 925.778 575.689 917.587L567.86 911.366ZM624.693 812.818L567.444 911.976L576.104 916.976L633.354 817.818L624.693 812.818ZM627.093 788.892C628.372 796.947 627.544 805.444 624.372 813.483L633.675 817.153C637.514 807.42 638.523 797.113 636.969 787.324L627.093 788.892ZM650.177 768.788C644.8 775.554 637.856 780.519 630.241 783.44L633.822 792.777C643.076 789.228 651.498 783.2 658.006 775.009L650.177 768.788ZM702.38 678.261L649.762 769.398L658.422 774.398L711.04 683.261L702.38 678.261ZM704.78 654.334C706.058 662.39 705.23 670.886 702.059 678.926L711.361 682.595C715.2 672.863 716.21 662.556 714.656 652.767L704.78 654.334ZM727.864 634.23C722.487 640.996 715.543 645.962 707.928 648.882L711.508 658.219C720.763 654.67 729.184 648.642 735.693 640.451L727.864 634.23ZM805.977 498.824L727.448 634.841L736.109 639.841L814.638 503.824L805.977 498.824ZM859.595 258.68C874.254 320.608 856.494 411.327 805.977 498.824L814.638 503.824C865.91 415.019 884.775 321.641 869.326 256.377L859.595 258.68ZM903.526 179.866L860.131 255.029L868.791 260.029L912.186 184.866L903.526 179.866ZM775.452 111.696L905.356 186.696L910.356 178.036L780.452 103.036L775.452 111.696ZM738.887 185.029L782.282 109.866L773.622 104.866L730.227 180.029L738.887 185.029ZM554.83 353.824C605.347 266.327 675.032 205.587 735.992 187.318L733.121 177.739C668.876 196.992 597.442 260.019 546.17 348.824L554.83 353.824ZM480.23 483.035L554.83 353.824L546.17 348.824L471.57 478.035L480.23 483.035ZM478.409 476.21L478.4 476.205L473.4 484.865L473.409 484.87L478.409 476.21ZM479.715 483.927C479.872 483.656 480.03 483.388 480.19 483.122L471.627 477.958C471.434 478.278 471.243 478.601 471.055 478.927L479.715 483.927ZM473.888 514.948C472.263 504.711 474.04 493.757 479.715 483.927L471.055 478.927C464.206 490.79 462.036 504.07 464.012 516.516L473.888 514.948ZM446.789 540.957C452.465 531.127 461.062 524.112 470.74 520.401L467.16 511.064C455.394 515.576 444.978 524.094 438.129 535.957L446.789 540.957ZM402.543 617.593L446.789 540.957L438.129 535.957L393.883 612.593L402.543 617.593ZM400.722 610.768L400.713 610.763L395.713 619.423L395.722 619.428L400.722 610.768ZM402.036 618.472C402.189 618.206 402.345 617.942 402.503 617.68L393.94 612.516C393.75 612.831 393.562 613.149 393.377 613.47L402.036 618.472ZM402.022 618.497L402.036 618.471L393.376 613.471L393.361 613.497L402.022 618.497ZM396.202 649.505C394.578 639.272 396.352 628.323 402.022 618.495L393.361 613.498C386.518 625.358 384.351 638.632 386.325 651.073L396.202 649.505ZM369.109 675.503C374.784 665.679 383.379 658.668 393.054 654.958L389.473 645.621C377.711 650.131 367.299 658.645 360.45 670.501L369.109 675.503Z" fill="url(#paint0_linear_443_53)" fill-opacity="0.5" mask="url(#path-1-inside-1_443_53)"/>
</g>
<g filter="url(#filter1_di_443_53)">
<rect x="729.694" y="164.952" width="75" height="175" transform="rotate(-60 729.694 164.952)" fill="#0075FF"/>
<rect x="729.694" y="164.952" width="75" height="175" transform="rotate(-60 729.694 164.952)" fill="url(#paint1_linear_443_53)" fill-opacity="0.25"/>
<rect x="729.694" y="164.952" width="75" height="175" transform="rotate(-60 729.694 164.952)" fill="url(#paint2_linear_443_53)" fill-opacity="0.25"/>
<rect x="733.109" y="164.037" width="70" height="170" transform="rotate(-60 733.109 164.037)" stroke="#666666" stroke-opacity="0.5" stroke-width="5"/>
</g>
<g filter="url(#filter2_d_443_53)">
<path d="M100.763 447.889C97.7446 429.616 111.841 413 130.362 413H953.015C971.407 413 985.469 429.399 982.664 447.576L870.924 1171.58C868.666 1186.2 856.077 1197 841.275 1197H266.919C242.449 1197 221.575 1179.29 217.587 1155.15L100.763 447.889Z" fill="url(#paint3_linear_443_53)"/>
</g>
<g filter="url(#filter3_d_443_53)">
<mask id="path-6-outside-2_443_53" maskUnits="userSpaceOnUse" x="264" y="601" width="556" height="386" fill="black">
<rect fill="white" x="264" y="601" width="556" height="386"/>
<path d="M274.152 673.184C274.152 654.316 279.074 639.332 288.918 628.23C298.762 617.129 312.707 611.578 330.754 611.578C341.637 611.578 350.168 612.973 356.348 615.762C362.582 618.551 368.051 622.871 372.754 628.723C375.598 632.277 375.516 635.039 372.508 637.008L363.156 643.078C360.422 644.883 357.496 644.09 354.379 640.699C351.809 637.91 348.555 635.586 344.617 633.727C340.68 631.867 336.332 630.938 331.574 630.938C320.09 630.938 311.914 634.574 307.047 641.848C302.18 649.066 299.746 659.512 299.746 673.184C299.746 686.855 302.18 697.328 307.047 704.602C311.914 711.82 320.09 715.43 331.574 715.43C337.152 715.43 341.965 714.883 346.012 713.789C350.059 712.641 353.887 710.59 357.496 707.637V692.953H339.695C335.594 692.953 333.543 691.176 333.543 687.621V677.941C333.543 674.387 335.594 672.609 339.695 672.609H375.297C379.398 672.609 381.449 674.387 381.449 677.941V719.613C373.793 725.246 366.055 729.184 358.234 731.426C350.469 733.668 341.309 734.789 330.754 734.789C312.98 734.789 299.09 729.238 289.082 718.137C279.129 707.035 274.152 692.051 274.152 673.184ZM409.504 732C405.676 732 403.762 729.949 403.762 725.848V620.52C403.762 616.418 405.676 614.367 409.504 614.367H422.793C426.074 614.367 427.715 616.418 427.715 620.52V711.656H475.539C479.641 711.656 481.691 713.434 481.691 716.988V726.668C481.691 730.223 479.641 732 475.539 732H409.504ZM495.391 732C491.453 732 490.168 730.195 491.535 726.586L531.73 621.012C533.426 616.582 535.996 614.367 539.441 614.367H550.926C554.371 614.367 556.941 616.582 558.637 621.012L598.832 726.586C600.199 730.195 598.914 732 594.977 732H581.934C578.324 732 575.809 730.113 574.387 726.34L566.02 704.273H524.348L515.98 726.34C514.559 730.113 512.043 732 508.434 732H495.391ZM531.977 683.93H558.391L548.301 657.844C547.098 654.781 546.359 652.566 546.086 651.199C545.867 649.777 545.621 647.699 545.348 644.965H545.02C544.746 647.699 544.473 649.777 544.199 651.199C543.98 652.566 543.27 654.781 542.066 657.844L531.977 683.93ZM614.828 723.223C611.438 720.652 610.617 718.055 612.367 715.43L618.684 705.914C620.762 702.797 623.797 702.633 627.789 705.422C630.852 707.555 634.844 709.77 639.766 712.066C644.742 714.309 649.965 715.43 655.434 715.43C659.262 715.43 662.953 714.992 666.508 714.117C670.062 713.242 672.77 711.547 674.629 709.031C676.488 706.516 677.418 703.535 677.418 700.09C677.418 697.629 677.008 695.469 676.188 693.609C675.367 691.75 674.027 690.219 672.168 689.016C670.309 687.812 668.395 686.801 666.426 685.98C662.98 684.559 658.633 683.164 653.383 681.797C648.188 680.375 643.047 678.68 637.961 676.711C633.422 674.961 629.266 672.555 625.492 669.492C621.719 666.43 618.793 662.984 616.715 659.156C614.637 655.328 613.598 650.215 613.598 643.816C613.598 636.215 616.059 629.707 620.98 624.293C625.902 618.879 631.562 615.406 637.961 613.875C644.359 612.344 650.812 611.578 657.32 611.578C663.773 611.578 670.418 612.562 677.254 614.531C684.145 616.5 689.34 618.961 692.84 621.914C696.285 624.812 697.133 627.438 695.383 629.789L688.738 638.73C686.496 641.793 683.488 642.039 679.715 639.469C677.309 637.828 674 635.996 669.789 633.973C665.633 631.949 661.285 630.938 656.746 630.938C653.52 630.938 650.539 631.211 647.805 631.758C645.125 632.305 642.746 633.617 640.668 635.695C638.59 637.773 637.551 640.344 637.551 643.406C637.551 646.359 638.316 648.766 639.848 650.625C641.379 652.43 643.074 653.797 644.934 654.727C646.793 655.602 648.68 656.34 650.594 656.941C656.5 658.855 661.777 660.551 666.426 662.027C671.074 663.449 675.367 665.035 679.305 666.785C684.773 669.246 688.957 671.707 691.855 674.168C694.754 676.629 697.133 679.992 698.992 684.258C700.906 688.523 701.863 693.609 701.863 699.516C701.863 708.266 699.074 715.512 693.496 721.254C687.918 726.941 681.711 730.605 674.875 732.246C668.094 733.941 661.477 734.789 655.023 734.789C645.508 734.789 637.77 733.859 631.809 732C625.848 730.195 620.188 727.27 614.828 723.223ZM722.125 723.223C718.734 720.652 717.914 718.055 719.664 715.43L725.98 705.914C728.059 702.797 731.094 702.633 735.086 705.422C738.148 707.555 742.141 709.77 747.062 712.066C752.039 714.309 757.262 715.43 762.73 715.43C766.559 715.43 770.25 714.992 773.805 714.117C777.359 713.242 780.066 711.547 781.926 709.031C783.785 706.516 784.715 703.535 784.715 700.09C784.715 697.629 784.305 695.469 783.484 693.609C782.664 691.75 781.324 690.219 779.465 689.016C777.605 687.812 775.691 686.801 773.723 685.98C770.277 684.559 765.93 683.164 760.68 681.797C755.484 680.375 750.344 678.68 745.258 676.711C740.719 674.961 736.562 672.555 732.789 669.492C729.016 666.43 726.09 662.984 724.012 659.156C721.934 655.328 720.895 650.215 720.895 643.816C720.895 636.215 723.355 629.707 728.277 624.293C733.199 618.879 738.859 615.406 745.258 613.875C751.656 612.344 758.109 611.578 764.617 611.578C771.07 611.578 777.715 612.562 784.551 614.531C791.441 616.5 796.637 618.961 800.137 621.914C803.582 624.812 804.43 627.438 802.68 629.789L796.035 638.73C793.793 641.793 790.785 642.039 787.012 639.469C784.605 637.828 781.297 635.996 777.086 633.973C772.93 631.949 768.582 630.938 764.043 630.938C760.816 630.938 757.836 631.211 755.102 631.758C752.422 632.305 750.043 633.617 747.965 635.695C745.887 637.773 744.848 640.344 744.848 643.406C744.848 646.359 745.613 648.766 747.145 650.625C748.676 652.43 750.371 653.797 752.23 654.727C754.09 655.602 755.977 656.34 757.891 656.941C763.797 658.855 769.074 660.551 773.723 662.027C778.371 663.449 782.664 665.035 786.602 666.785C792.07 669.246 796.254 671.707 799.152 674.168C802.051 676.629 804.43 679.992 806.289 684.258C808.203 688.523 809.16 693.609 809.16 699.516C809.16 708.266 806.371 715.512 800.793 721.254C795.215 726.941 789.008 730.605 782.172 732.246C775.391 733.941 768.773 734.789 762.32 734.789C752.805 734.789 745.066 733.859 739.105 732C733.145 730.195 727.484 727.27 722.125 723.223ZM331.738 915.184C331.738 896.316 336.605 881.332 346.34 870.23C356.074 859.129 369.965 853.578 388.012 853.578C406.059 853.578 419.949 859.129 429.684 870.23C439.418 881.332 444.285 896.316 444.285 915.184C444.285 934.051 439.418 949.035 429.684 960.137C419.949 971.238 406.059 976.789 388.012 976.789C369.965 976.789 356.074 971.238 346.34 960.137C336.605 949.035 331.738 934.051 331.738 915.184ZM357.332 915.184C357.332 928.855 359.766 939.328 364.633 946.602C369.555 953.82 377.348 957.43 388.012 957.43C398.676 957.43 406.441 953.82 411.309 946.602C416.23 939.328 418.691 928.855 418.691 915.184C418.691 901.512 416.23 891.066 411.309 883.848C406.441 876.574 398.676 872.938 388.012 872.938C377.348 872.938 369.555 876.574 364.633 883.848C359.766 891.066 357.332 901.512 357.332 915.184ZM470.207 974C466.379 974 464.465 971.949 464.465 967.848V862.52C464.465 858.418 466.379 856.367 470.207 856.367H482.348C487.051 856.367 490.605 858.281 493.012 862.109L534.848 929.293H535.422C535.148 926.012 535.012 922.73 535.012 919.449V862.52C535.012 858.418 536.926 856.367 540.754 856.367H553.223C557.051 856.367 558.965 858.418 558.965 862.52V967.848C558.965 971.949 557.051 974 553.223 974H541.902C537.199 974 533.645 972.086 531.238 968.258L488.582 899.844H488.008C488.281 903.125 488.418 906.406 488.418 909.688V967.848C488.418 971.949 486.504 974 482.676 974H470.207ZM590.957 974C587.129 974 585.215 971.949 585.215 967.848V862.52C585.215 858.418 587.129 856.367 590.957 856.367H604.246C607.527 856.367 609.168 858.418 609.168 862.52V953.656H656.992C661.094 953.656 663.145 955.434 663.145 958.988V968.668C663.145 972.223 661.094 974 656.992 974H590.957ZM653.465 863.422C650.676 858.719 651.961 856.367 657.32 856.367H671.676C674.52 856.367 677.035 858.254 679.223 862.027L696.695 892.461C697.188 893.281 698.637 895.852 701.043 900.172C703.449 904.438 704.844 908.594 705.227 912.641H705.555C705.938 908.594 707.332 904.438 709.738 900.172C712.145 895.852 713.594 893.281 714.086 892.461L731.559 862.027C733.746 858.254 736.262 856.367 739.105 856.367H753.461C758.82 856.367 760.105 858.719 757.316 863.422L717.367 930.934V969.488C717.367 972.496 715.453 974 711.625 974H699.156C695.328 974 693.414 972.496 693.414 969.488V930.934L653.465 863.422Z"/>
</mask>
<path d="M274.152 673.184C274.152 654.316 279.074 639.332 288.918 628.23C298.762 617.129 312.707 611.578 330.754 611.578C341.637 611.578 350.168 612.973 356.348 615.762C362.582 618.551 368.051 622.871 372.754 628.723C375.598 632.277 375.516 635.039 372.508 637.008L363.156 643.078C360.422 644.883 357.496 644.09 354.379 640.699C351.809 637.91 348.555 635.586 344.617 633.727C340.68 631.867 336.332 630.938 331.574 630.938C320.09 630.938 311.914 634.574 307.047 641.848C302.18 649.066 299.746 659.512 299.746 673.184C299.746 686.855 302.18 697.328 307.047 704.602C311.914 711.82 320.09 715.43 331.574 715.43C337.152 715.43 341.965 714.883 346.012 713.789C350.059 712.641 353.887 710.59 357.496 707.637V692.953H339.695C335.594 692.953 333.543 691.176 333.543 687.621V677.941C333.543 674.387 335.594 672.609 339.695 672.609H375.297C379.398 672.609 381.449 674.387 381.449 677.941V719.613C373.793 725.246 366.055 729.184 358.234 731.426C350.469 733.668 341.309 734.789 330.754 734.789C312.98 734.789 299.09 729.238 289.082 718.137C279.129 707.035 274.152 692.051 274.152 673.184ZM409.504 732C405.676 732 403.762 729.949 403.762 725.848V620.52C403.762 616.418 405.676 614.367 409.504 614.367H422.793C426.074 614.367 427.715 616.418 427.715 620.52V711.656H475.539C479.641 711.656 481.691 713.434 481.691 716.988V726.668C481.691 730.223 479.641 732 475.539 732H409.504ZM495.391 732C491.453 732 490.168 730.195 491.535 726.586L531.73 621.012C533.426 616.582 535.996 614.367 539.441 614.367H550.926C554.371 614.367 556.941 616.582 558.637 621.012L598.832 726.586C600.199 730.195 598.914 732 594.977 732H581.934C578.324 732 575.809 730.113 574.387 726.34L566.02 704.273H524.348L515.98 726.34C514.559 730.113 512.043 732 508.434 732H495.391ZM531.977 683.93H558.391L548.301 657.844C547.098 654.781 546.359 652.566 546.086 651.199C545.867 649.777 545.621 647.699 545.348 644.965H545.02C544.746 647.699 544.473 649.777 544.199 651.199C543.98 652.566 543.27 654.781 542.066 657.844L531.977 683.93ZM614.828 723.223C611.438 720.652 610.617 718.055 612.367 715.43L618.684 705.914C620.762 702.797 623.797 702.633 627.789 705.422C630.852 707.555 634.844 709.77 639.766 712.066C644.742 714.309 649.965 715.43 655.434 715.43C659.262 715.43 662.953 714.992 666.508 714.117C670.062 713.242 672.77 711.547 674.629 709.031C676.488 706.516 677.418 703.535 677.418 700.09C677.418 697.629 677.008 695.469 676.188 693.609C675.367 691.75 674.027 690.219 672.168 689.016C670.309 687.812 668.395 686.801 666.426 685.98C662.98 684.559 658.633 683.164 653.383 681.797C648.188 680.375 643.047 678.68 637.961 676.711C633.422 674.961 629.266 672.555 625.492 669.492C621.719 666.43 618.793 662.984 616.715 659.156C614.637 655.328 613.598 650.215 613.598 643.816C613.598 636.215 616.059 629.707 620.98 624.293C625.902 618.879 631.562 615.406 637.961 613.875C644.359 612.344 650.812 611.578 657.32 611.578C663.773 611.578 670.418 612.562 677.254 614.531C684.145 616.5 689.34 618.961 692.84 621.914C696.285 624.812 697.133 627.438 695.383 629.789L688.738 638.73C686.496 641.793 683.488 642.039 679.715 639.469C677.309 637.828 674 635.996 669.789 633.973C665.633 631.949 661.285 630.938 656.746 630.938C653.52 630.938 650.539 631.211 647.805 631.758C645.125 632.305 642.746 633.617 640.668 635.695C638.59 637.773 637.551 640.344 637.551 643.406C637.551 646.359 638.316 648.766 639.848 650.625C641.379 652.43 643.074 653.797 644.934 654.727C646.793 655.602 648.68 656.34 650.594 656.941C656.5 658.855 661.777 660.551 666.426 662.027C671.074 663.449 675.367 665.035 679.305 666.785C684.773 669.246 688.957 671.707 691.855 674.168C694.754 676.629 697.133 679.992 698.992 684.258C700.906 688.523 701.863 693.609 701.863 699.516C701.863 708.266 699.074 715.512 693.496 721.254C687.918 726.941 681.711 730.605 674.875 732.246C668.094 733.941 661.477 734.789 655.023 734.789C645.508 734.789 637.77 733.859 631.809 732C625.848 730.195 620.188 727.27 614.828 723.223ZM722.125 723.223C718.734 720.652 717.914 718.055 719.664 715.43L725.98 705.914C728.059 702.797 731.094 702.633 735.086 705.422C738.148 707.555 742.141 709.77 747.062 712.066C752.039 714.309 757.262 715.43 762.73 715.43C766.559 715.43 770.25 714.992 773.805 714.117C777.359 713.242 780.066 711.547 781.926 709.031C783.785 706.516 784.715 703.535 784.715 700.09C784.715 697.629 784.305 695.469 783.484 693.609C782.664 691.75 781.324 690.219 779.465 689.016C777.605 687.812 775.691 686.801 773.723 685.98C770.277 684.559 765.93 683.164 760.68 681.797C755.484 680.375 750.344 678.68 745.258 676.711C740.719 674.961 736.562 672.555 732.789 669.492C729.016 666.43 726.09 662.984 724.012 659.156C721.934 655.328 720.895 650.215 720.895 643.816C720.895 636.215 723.355 629.707 728.277 624.293C733.199 618.879 738.859 615.406 745.258 613.875C751.656 612.344 758.109 611.578 764.617 611.578C771.07 611.578 777.715 612.562 784.551 614.531C791.441 616.5 796.637 618.961 800.137 621.914C803.582 624.812 804.43 627.438 802.68 629.789L796.035 638.73C793.793 641.793 790.785 642.039 787.012 639.469C784.605 637.828 781.297 635.996 777.086 633.973C772.93 631.949 768.582 630.938 764.043 630.938C760.816 630.938 757.836 631.211 755.102 631.758C752.422 632.305 750.043 633.617 747.965 635.695C745.887 637.773 744.848 640.344 744.848 643.406C744.848 646.359 745.613 648.766 747.145 650.625C748.676 652.43 750.371 653.797 752.23 654.727C754.09 655.602 755.977 656.34 757.891 656.941C763.797 658.855 769.074 660.551 773.723 662.027C778.371 663.449 782.664 665.035 786.602 666.785C792.07 669.246 796.254 671.707 799.152 674.168C802.051 676.629 804.43 679.992 806.289 684.258C808.203 688.523 809.16 693.609 809.16 699.516C809.16 708.266 806.371 715.512 800.793 721.254C795.215 726.941 789.008 730.605 782.172 732.246C775.391 733.941 768.773 734.789 762.32 734.789C752.805 734.789 745.066 733.859 739.105 732C733.145 730.195 727.484 727.27 722.125 723.223ZM331.738 915.184C331.738 896.316 336.605 881.332 346.34 870.23C356.074 859.129 369.965 853.578 388.012 853.578C406.059 853.578 419.949 859.129 429.684 870.23C439.418 881.332 444.285 896.316 444.285 915.184C444.285 934.051 439.418 949.035 429.684 960.137C419.949 971.238 406.059 976.789 388.012 976.789C369.965 976.789 356.074 971.238 346.34 960.137C336.605 949.035 331.738 934.051 331.738 915.184ZM357.332 915.184C357.332 928.855 359.766 939.328 364.633 946.602C369.555 953.82 377.348 957.43 388.012 957.43C398.676 957.43 406.441 953.82 411.309 946.602C416.23 939.328 418.691 928.855 418.691 915.184C418.691 901.512 416.23 891.066 411.309 883.848C406.441 876.574 398.676 872.938 388.012 872.938C377.348 872.938 369.555 876.574 364.633 883.848C359.766 891.066 357.332 901.512 357.332 915.184ZM470.207 974C466.379 974 464.465 971.949 464.465 967.848V862.52C464.465 858.418 466.379 856.367 470.207 856.367H482.348C487.051 856.367 490.605 858.281 493.012 862.109L534.848 929.293H535.422C535.148 926.012 535.012 922.73 535.012 919.449V862.52C535.012 858.418 536.926 856.367 540.754 856.367H553.223C557.051 856.367 558.965 858.418 558.965 862.52V967.848C558.965 971.949 557.051 974 553.223 974H541.902C537.199 974 533.645 972.086 531.238 968.258L488.582 899.844H488.008C488.281 903.125 488.418 906.406 488.418 909.688V967.848C488.418 971.949 486.504 974 482.676 974H470.207ZM590.957 974C587.129 974 585.215 971.949 585.215 967.848V862.52C585.215 858.418 587.129 856.367 590.957 856.367H604.246C607.527 856.367 609.168 858.418 609.168 862.52V953.656H656.992C661.094 953.656 663.145 955.434 663.145 958.988V968.668C663.145 972.223 661.094 974 656.992 974H590.957ZM653.465 863.422C650.676 858.719 651.961 856.367 657.32 856.367H671.676C674.52 856.367 677.035 858.254 679.223 862.027L696.695 892.461C697.188 893.281 698.637 895.852 701.043 900.172C703.449 904.438 704.844 908.594 705.227 912.641H705.555C705.938 908.594 707.332 904.438 709.738 900.172C712.145 895.852 713.594 893.281 714.086 892.461L731.559 862.027C733.746 858.254 736.262 856.367 739.105 856.367H753.461C758.82 856.367 760.105 858.719 757.316 863.422L717.367 930.934V969.488C717.367 972.496 715.453 974 711.625 974H699.156C695.328 974 693.414 972.496 693.414 969.488V930.934L653.465 863.422Z" fill="white"/>
<path d="M356.348 615.762L352.234 624.876L352.249 624.883L352.264 624.89L356.348 615.762ZM372.754 628.723L380.563 622.476L380.555 622.467L380.548 622.458L372.754 628.723ZM372.508 637.008L377.953 645.396L377.968 645.385L377.984 645.375L372.508 637.008ZM363.156 643.078L357.712 634.69L357.68 634.711L357.648 634.732L363.156 643.078ZM354.379 640.699L361.741 633.931L361.732 633.922L354.379 640.699ZM307.047 641.848L315.338 647.438L315.348 647.424L315.358 647.409L307.047 641.848ZM307.047 704.602L298.736 710.163L298.746 710.177L298.755 710.192L307.047 704.602ZM346.012 713.789L348.621 723.443L348.681 723.426L348.742 723.409L346.012 713.789ZM357.496 707.637L363.828 715.376L367.496 712.376V707.637H357.496ZM357.496 692.953H367.496V682.953H357.496V692.953ZM381.449 719.613L387.375 727.668L391.449 724.671V719.613H381.449ZM358.234 731.426L355.478 721.813L355.469 721.816L355.46 721.818L358.234 731.426ZM289.082 718.137L281.636 724.812L281.645 724.822L281.655 724.832L289.082 718.137ZM284.152 673.184C284.152 656.076 288.582 643.682 296.4 634.865L281.436 621.596C269.567 634.982 264.152 652.557 264.152 673.184H284.152ZM296.4 634.865C303.941 626.36 314.895 621.578 330.754 621.578V601.578C310.519 601.578 293.582 607.898 281.436 621.596L296.4 634.865ZM330.754 621.578C340.978 621.578 347.896 622.918 352.234 624.876L360.461 606.647C352.44 603.027 342.295 601.578 330.754 601.578V621.578ZM352.264 624.89C356.913 626.97 361.149 630.246 364.959 634.987L380.548 622.458C374.953 615.496 368.251 610.132 360.431 606.634L352.264 624.89ZM364.945 634.97C365.272 635.379 365.273 635.469 365.176 635.246C365.071 635.007 364.797 634.27 364.83 633.163C364.865 631.97 365.246 630.828 365.843 629.914C366.387 629.081 366.931 628.706 367.031 628.641L377.984 645.375C381.31 643.198 384.654 639.361 384.821 633.757C384.965 628.888 382.575 624.991 380.563 622.476L364.945 634.97ZM367.063 628.62L357.712 634.69L368.601 651.466L377.953 645.396L367.063 628.62ZM357.648 634.732C357.941 634.538 358.505 634.245 359.31 634.101C360.136 633.953 360.912 634.018 361.527 634.185C362.601 634.476 362.637 634.907 361.741 633.931L347.017 647.467C349.238 649.882 352.295 652.405 356.295 653.489C360.771 654.702 365.12 653.763 368.665 651.424L357.648 634.732ZM361.732 633.922C358.17 630.057 353.818 627.013 348.887 624.684L340.347 642.769C343.291 644.159 345.447 645.763 347.025 647.476L361.732 633.922ZM348.887 624.684C343.495 622.138 337.67 620.938 331.574 620.938V640.938C334.994 640.938 337.865 641.597 340.347 642.769L348.887 624.684ZM331.574 620.938C317.913 620.938 306.023 625.396 298.736 636.286L315.358 647.409C317.805 643.752 322.267 640.938 331.574 640.938V620.938ZM298.755 636.257C292.306 645.823 289.746 658.568 289.746 673.184H309.746C309.746 660.456 312.054 652.31 315.338 647.438L298.755 636.257ZM289.746 673.184C289.746 687.807 292.309 700.558 298.736 710.163L315.358 699.04C312.051 694.098 309.746 685.903 309.746 673.184H289.746ZM298.755 710.192C306.055 721.019 317.943 725.43 331.574 725.43V705.43C322.237 705.43 317.773 702.622 315.338 699.011L298.755 710.192ZM331.574 725.43C337.762 725.43 343.496 724.828 348.621 723.443L343.403 704.135C340.434 704.938 336.542 705.43 331.574 705.43V725.43ZM348.742 723.409C354.242 721.848 359.275 719.102 363.828 715.376L351.164 699.897C348.498 702.078 345.875 703.433 343.282 704.169L348.742 723.409ZM367.496 707.637V692.953H347.496V707.637H367.496ZM357.496 682.953H339.695V702.953H357.496V682.953ZM339.695 682.953C338.863 682.953 340.106 682.742 341.63 684.063C342.423 684.75 342.961 685.583 343.261 686.364C343.538 687.085 343.543 687.572 343.543 687.621H323.543C323.543 691.342 324.683 695.841 328.532 699.177C332.107 702.276 336.426 702.953 339.695 702.953V682.953ZM343.543 687.621V677.941H323.543V687.621H343.543ZM343.543 677.941C343.543 677.991 343.538 678.477 343.261 679.198C342.961 679.98 342.423 680.813 341.63 681.499C340.106 682.82 338.863 682.609 339.695 682.609V662.609C336.426 662.609 332.107 663.287 328.532 666.385C324.683 669.721 323.543 674.22 323.543 677.941H343.543ZM339.695 682.609H375.297V662.609H339.695V682.609ZM375.297 682.609C376.129 682.609 374.886 682.82 373.362 681.499C372.57 680.813 372.032 679.98 371.731 679.198C371.454 678.477 371.449 677.991 371.449 677.941H391.449C391.449 674.22 390.309 669.721 386.46 666.385C382.885 663.287 378.566 662.609 375.297 662.609V682.609ZM371.449 677.941V719.613H391.449V677.941H371.449ZM375.523 711.558C368.665 716.604 361.984 719.948 355.478 721.813L360.99 741.038C370.126 738.419 378.921 733.888 387.375 727.668L375.523 711.558ZM355.46 721.818C348.823 723.735 340.639 724.789 330.754 724.789V744.789C341.978 744.789 352.114 743.601 361.008 741.033L355.46 721.818ZM330.754 724.789C315.228 724.789 304.262 720.041 296.51 711.441L281.655 724.832C293.918 738.436 310.733 744.789 330.754 744.789V724.789ZM296.528 711.461C288.621 702.642 284.152 690.264 284.152 673.184H264.152C264.152 693.838 269.637 711.428 281.636 724.812L296.528 711.461ZM427.715 711.656H417.715V721.656H427.715V711.656ZM409.504 722C409.315 722 410.961 721.982 412.508 723.639C413.933 725.166 413.762 726.522 413.762 725.848H393.762C393.762 729.275 394.548 733.707 397.887 737.285C401.347 740.993 405.865 742 409.504 742V722ZM413.762 725.848V620.52H393.762V725.848H413.762ZM413.762 620.52C413.762 619.845 413.933 621.202 412.508 622.728C410.961 624.385 409.315 624.367 409.504 624.367V604.367C405.865 604.367 401.347 605.374 397.887 609.082C394.548 612.66 393.762 617.092 393.762 620.52H413.762ZM409.504 624.367H422.793V604.367H409.504V624.367ZM422.793 624.367C422.589 624.367 421.95 624.337 421.1 623.982C420.189 623.603 419.331 622.972 418.676 622.152C417.475 620.651 417.715 619.537 417.715 620.52H437.715C437.715 617.4 437.135 613.21 434.293 609.658C431.111 605.68 426.641 604.367 422.793 604.367V624.367ZM417.715 620.52V711.656H437.715V620.52H417.715ZM427.715 721.656H475.539V701.656H427.715V721.656ZM475.539 721.656C476.371 721.656 475.128 721.867 473.604 720.546C472.812 719.86 472.274 719.026 471.973 718.245C471.696 717.524 471.691 717.038 471.691 716.988H491.691C491.691 713.267 490.551 708.768 486.703 705.432C483.127 702.334 478.808 701.656 475.539 701.656V721.656ZM471.691 716.988V726.668H491.691V716.988H471.691ZM471.691 726.668C471.691 726.618 471.696 726.132 471.973 725.411C472.274 724.63 472.812 723.797 473.604 723.11C475.128 721.789 476.371 722 475.539 722V742C478.808 742 483.127 741.322 486.703 738.224C490.551 734.888 491.691 730.389 491.691 726.668H471.691ZM475.539 722H409.504V742H475.539V722ZM491.535 726.586L482.19 723.028L482.187 723.036L482.184 723.044L491.535 726.586ZM531.73 621.012L522.391 617.437L522.388 617.445L522.385 617.454L531.73 621.012ZM558.637 621.012L567.982 617.454L567.979 617.445L567.976 617.437L558.637 621.012ZM598.832 726.586L608.184 723.044L608.181 723.036L608.178 723.028L598.832 726.586ZM574.387 726.34L583.744 722.814L583.741 722.804L583.737 722.794L574.387 726.34ZM566.02 704.273L575.37 700.728L572.922 694.273H566.02V704.273ZM524.348 704.273V694.273H517.445L514.997 700.728L524.348 704.273ZM515.98 726.34L506.63 722.794L506.626 722.804L506.623 722.814L515.98 726.34ZM531.977 683.93L522.65 680.322L517.387 693.93H531.977V683.93ZM558.391 683.93V693.93H572.981L567.717 680.322L558.391 683.93ZM548.301 657.844L557.627 654.236L557.618 654.212L557.608 654.187L548.301 657.844ZM546.086 651.199L536.202 652.72L536.236 652.941L536.28 653.16L546.086 651.199ZM545.348 644.965L555.298 643.97L554.398 634.965H545.348V644.965ZM545.02 644.965V634.965H535.97L535.069 643.97L545.02 644.965ZM544.199 651.199L534.379 649.311L534.35 649.465L534.325 649.619L544.199 651.199ZM542.066 657.844L532.759 654.187L532.749 654.212L532.74 654.236L542.066 657.844ZM495.391 722C495.085 722 495.46 721.954 496.201 722.21C497.024 722.494 498.464 723.223 499.619 724.846C500.788 726.486 501.021 728.135 501.006 729.106C500.993 729.968 500.795 730.37 500.887 730.128L482.184 723.044C481.187 725.675 479.665 731.303 483.328 736.447C486.916 741.486 492.628 742 495.391 742V722ZM500.881 730.144L541.076 624.57L522.385 617.454L482.19 723.028L500.881 730.144ZM541.07 624.586C541.296 623.995 541.483 623.66 541.581 623.507C541.676 623.359 541.654 623.435 541.457 623.604C541.246 623.786 540.914 624.006 540.477 624.167C540.042 624.327 539.67 624.367 539.441 624.367V604.367C535.363 604.367 531.533 605.755 528.402 608.453C525.463 610.985 523.608 614.258 522.391 617.437L541.07 624.586ZM539.441 624.367H550.926V604.367H539.441V624.367ZM550.926 624.367C550.697 624.367 550.325 624.327 549.891 624.167C549.454 624.006 549.121 623.786 548.91 623.604C548.714 623.435 548.691 623.359 548.786 623.507C548.884 623.66 549.071 623.995 549.297 624.586L567.976 617.437C566.759 614.258 564.904 610.985 561.965 608.453C558.834 605.755 555.004 604.367 550.926 604.367V624.367ZM549.291 624.57L589.486 730.144L608.178 723.028L567.982 617.454L549.291 624.57ZM589.48 730.128C589.572 730.37 589.374 729.968 589.361 729.106C589.347 728.135 589.58 726.486 590.748 724.846C591.903 723.223 593.343 722.494 594.166 722.21C594.907 721.954 595.282 722 594.977 722V742C597.74 742 603.451 741.486 607.039 736.447C610.703 731.303 609.18 725.675 608.184 723.044L589.48 730.128ZM594.977 722H581.934V742H594.977V722ZM581.934 722C581.905 722 582.076 721.997 582.375 722.089C582.689 722.186 583.03 722.352 583.34 722.585C583.979 723.065 583.972 723.417 583.744 722.814L565.029 729.866C566.224 733.036 568.185 736.219 571.34 738.585C574.578 741.013 578.299 742 581.934 742V722ZM583.737 722.794L575.37 700.728L556.669 707.819L565.036 729.885L583.737 722.794ZM566.02 694.273H524.348V714.273H566.02V694.273ZM514.997 700.728L506.63 722.794L525.331 729.885L533.698 707.819L514.997 700.728ZM506.623 722.814C506.395 723.417 506.388 723.065 507.027 722.585C507.338 722.352 507.678 722.186 507.992 722.089C508.292 721.997 508.462 722 508.434 722V742C512.069 742 515.79 741.013 519.027 738.585C522.183 736.219 524.144 733.036 525.338 729.866L506.623 722.814ZM508.434 722H495.391V742H508.434V722ZM531.977 693.93H558.391V673.93H531.977V693.93ZM567.717 680.322L557.627 654.236L538.974 661.451L549.064 687.537L567.717 680.322ZM557.608 654.187C556.41 651.137 555.974 649.651 555.892 649.238L536.28 653.16C536.744 655.482 537.785 658.426 538.993 661.5L557.608 654.187ZM555.97 649.679C555.792 648.523 555.567 646.656 555.298 643.97L535.397 645.96C535.676 648.743 535.942 651.031 536.202 652.72L555.97 649.679ZM545.348 634.965H545.02V654.965H545.348V634.965ZM535.069 643.97C534.804 646.619 534.566 648.34 534.379 649.311L554.019 653.088C554.379 651.215 554.688 648.779 554.97 645.96L535.069 643.97ZM534.325 649.619C534.331 649.58 534.27 649.927 533.98 650.829C533.71 651.671 533.312 652.78 532.759 654.187L551.374 661.5C552.58 658.43 553.667 655.322 554.074 652.779L534.325 649.619ZM532.74 654.236L522.65 680.322L541.303 687.537L551.393 661.451L532.74 654.236ZM614.828 723.223L608.787 731.192L608.795 731.197L608.802 731.203L614.828 723.223ZM612.367 715.43L620.688 720.977L620.693 720.968L620.699 720.96L612.367 715.43ZM618.684 705.914L610.363 700.367L610.358 700.375L610.352 700.384L618.684 705.914ZM627.789 705.422L622.062 713.619L622.068 713.624L622.074 713.628L627.789 705.422ZM639.766 712.066L635.537 721.128L635.597 721.156L635.658 721.184L639.766 712.066ZM666.426 685.98L670.272 676.75L670.256 676.743L670.241 676.737L666.426 685.98ZM653.383 681.797L650.743 691.442L650.803 691.459L650.863 691.474L653.383 681.797ZM637.961 676.711L641.571 667.385L641.558 667.38L637.961 676.711ZM677.254 614.531L674.486 624.141L674.497 624.144L674.507 624.146L677.254 614.531ZM692.84 621.914L686.391 629.557L686.397 629.562L686.402 629.566L692.84 621.914ZM695.383 629.789L687.36 623.819L687.356 623.824L695.383 629.789ZM688.738 638.73L680.712 632.766L680.691 632.794L680.67 632.823L688.738 638.73ZM679.715 639.469L674.081 647.731L674.085 647.734L679.715 639.469ZM669.789 633.973L665.412 642.964L665.435 642.975L665.458 642.986L669.789 633.973ZM647.805 631.758L645.844 621.952L645.824 621.956L645.805 621.96L647.805 631.758ZM639.848 650.625L632.128 656.982L632.175 657.039L632.223 657.095L639.848 650.625ZM644.934 654.727L640.461 663.671L640.568 663.724L640.676 663.775L644.934 654.727ZM650.594 656.941L653.677 647.428L653.634 647.415L653.592 647.401L650.594 656.941ZM666.426 662.027L663.398 671.558L663.449 671.574L663.501 671.59L666.426 662.027ZM679.305 666.785L683.408 657.666L683.387 657.656L683.366 657.647L679.305 666.785ZM698.992 684.258L689.825 688.254L689.847 688.303L689.869 688.352L698.992 684.258ZM693.496 721.254L700.635 728.256L700.652 728.239L700.669 728.222L693.496 721.254ZM674.875 732.246L672.541 722.522L672.495 722.533L672.45 722.545L674.875 732.246ZM631.809 732L634.786 722.454L634.746 722.441L634.706 722.429L631.809 732ZM620.869 715.254C619.962 714.566 620.731 714.832 621.206 716.335C621.473 717.182 621.556 718.165 621.382 719.146C621.215 720.081 620.872 720.7 620.688 720.977L604.047 709.883C601.789 713.269 600.661 717.693 602.134 722.358C603.429 726.459 606.303 729.309 608.787 731.192L620.869 715.254ZM620.699 720.96L627.015 711.444L610.352 700.384L604.036 709.899L620.699 720.96ZM627.004 711.461C626.932 711.569 626.581 712.059 625.822 712.546C625.003 713.072 624.027 713.386 623.058 713.439C622.161 713.487 621.593 713.296 621.475 713.252C621.371 713.213 621.561 713.27 622.062 713.619L633.516 697.224C630.715 695.267 626.717 693.212 621.979 693.468C616.577 693.76 612.698 696.865 610.363 700.367L627.004 711.461ZM622.074 713.628C625.766 716.199 630.307 718.688 635.537 721.128L643.994 703.005C639.38 700.851 635.938 698.911 633.504 697.216L622.074 713.628ZM635.658 721.184C641.928 724.009 648.551 725.43 655.434 725.43V705.43C651.378 705.43 647.556 704.608 643.873 702.949L635.658 721.184ZM655.434 725.43C660.03 725.43 664.526 724.903 668.898 723.827L664.118 704.407C661.38 705.081 658.493 705.43 655.434 705.43V725.43ZM668.898 723.827C674.313 722.494 679.195 719.677 682.671 714.975L666.587 703.087C666.344 703.417 665.812 703.99 664.118 704.407L668.898 723.827ZM682.671 714.975C685.931 710.564 687.418 705.446 687.418 700.09H667.418C667.418 701.624 667.045 702.468 666.587 703.087L682.671 714.975ZM687.418 700.09C687.418 696.526 686.823 692.943 685.337 689.573L667.038 697.646C667.192 697.995 667.418 698.732 667.418 700.09H687.418ZM685.337 689.573C683.659 685.769 680.944 682.783 677.6 680.62L666.735 697.411C666.955 697.553 667.034 697.642 667.042 697.651C667.048 697.658 667.046 697.657 667.041 697.65C667.036 697.642 667.035 697.639 667.038 697.646L685.337 689.573ZM677.6 680.62C675.258 679.104 672.814 677.809 670.272 676.75L662.58 695.211C663.975 695.793 665.36 696.521 666.735 697.411L677.6 680.62ZM670.241 676.737C666.232 675.082 661.414 673.555 655.903 672.12L650.863 691.474C655.851 692.773 659.729 694.035 662.611 695.224L670.241 676.737ZM656.023 672.152C651.16 670.821 646.343 669.233 641.571 667.385L634.351 686.037C639.751 688.127 645.215 689.929 650.743 691.442L656.023 672.152ZM641.558 667.38C637.996 666.007 634.753 664.129 631.794 661.728L619.19 677.257C623.779 680.98 628.848 683.915 634.364 686.041L641.558 667.38ZM631.794 661.728C628.92 659.395 626.888 656.936 625.503 654.385L607.926 663.927C610.698 669.032 614.518 673.464 619.19 677.257L631.794 661.728ZM625.503 654.385C624.506 652.549 623.598 649.274 623.598 643.816H603.598C603.598 651.156 604.767 658.107 607.926 663.927L625.503 654.385ZM623.598 643.816C623.598 638.596 625.202 634.516 628.38 631.02L613.581 617.566C606.916 624.898 603.598 633.834 603.598 643.816H623.598ZM628.38 631.02C632.108 626.918 636.06 624.612 640.288 623.6L635.633 604.15C627.065 606.2 619.696 610.839 613.581 617.566L628.38 631.02ZM640.288 623.6C645.933 622.25 651.605 621.578 657.32 621.578V601.578C650.02 601.578 642.786 602.438 635.633 604.15L640.288 623.6ZM657.32 621.578C662.747 621.578 668.459 622.405 674.486 624.141L680.021 604.922C672.377 602.72 664.8 601.578 657.32 601.578V621.578ZM674.507 624.146C680.725 625.923 684.409 627.885 686.391 629.557L699.289 614.271C694.27 610.037 687.564 607.077 680.001 604.916L674.507 624.146ZM686.402 629.566C686.628 629.756 686.788 629.907 686.896 630.016C687.005 630.126 687.046 630.179 687.041 630.173C687.037 630.168 686.971 630.083 686.879 629.918C686.787 629.751 686.659 629.487 686.543 629.13C686.296 628.364 686.161 627.333 686.369 626.19C686.572 625.071 687.024 624.271 687.36 623.819L703.405 635.759C706.069 632.179 707.065 627.595 705.576 622.984C704.317 619.087 701.618 616.231 699.277 614.262L686.402 629.566ZM687.356 623.824L680.712 632.766L696.765 644.695L703.409 635.754L687.356 623.824ZM680.67 632.823C680.692 632.793 680.964 632.428 681.581 632.039C682.248 631.619 683.086 631.319 683.985 631.245C685.672 631.107 686.268 631.833 685.344 631.204L674.085 647.734C676.936 649.675 680.922 651.563 685.616 651.179C690.73 650.76 694.448 647.859 696.807 644.638L680.67 632.823ZM685.348 631.206C682.357 629.167 678.548 627.087 674.12 624.959L665.458 642.986C669.452 644.905 672.261 646.49 674.081 647.731L685.348 631.206ZM674.166 624.982C668.672 622.307 662.831 620.938 656.746 620.938V640.938C659.74 640.938 662.593 641.592 665.412 642.964L674.166 624.982ZM656.746 620.938C652.961 620.938 649.315 621.258 645.844 621.952L649.766 641.564C651.763 641.164 654.078 640.938 656.746 640.938V620.938ZM645.805 621.96C641.059 622.928 636.953 625.268 633.597 628.624L647.739 642.766C648.539 641.966 649.191 641.681 649.804 641.556L645.805 621.96ZM633.597 628.624C629.557 632.664 627.551 637.816 627.551 643.406H647.551C647.551 643.207 647.568 643.082 647.58 643.016C647.586 642.982 647.592 642.96 647.595 642.948C647.599 642.936 647.601 642.93 647.601 642.93C647.601 642.929 647.601 642.929 647.602 642.929C647.602 642.929 647.604 642.924 647.61 642.916C647.62 642.9 647.656 642.85 647.739 642.766L633.597 628.624ZM627.551 643.406C627.551 648.137 628.811 652.954 632.128 656.982L647.567 644.268C647.65 644.368 647.67 644.443 647.654 644.394C647.631 644.321 647.551 644.024 647.551 643.406H627.551ZM632.223 657.095C634.507 659.787 637.239 662.06 640.461 663.671L649.406 645.782C648.91 645.534 648.251 645.073 647.473 644.155L632.223 657.095ZM640.676 663.775C642.933 664.837 645.241 665.741 647.595 666.481L653.592 647.401C652.119 646.938 650.652 646.366 649.192 645.678L640.676 663.775ZM647.511 666.454C653.431 668.373 658.727 670.074 663.398 671.558L669.453 652.497C664.827 651.027 659.569 649.338 653.677 647.428L647.511 666.454ZM663.501 671.59C667.81 672.908 671.719 674.357 675.243 675.923L683.366 657.647C679.015 655.713 674.338 653.99 669.351 652.465L663.501 671.59ZM675.201 675.904C680.246 678.175 683.489 680.183 685.383 681.791L698.328 666.545C694.425 663.232 689.3 660.317 683.408 657.666L675.201 675.904ZM685.383 681.791C686.887 683.068 688.442 685.079 689.825 688.254L708.159 680.262C705.824 674.905 702.621 670.19 698.328 666.545L685.383 681.791ZM689.869 688.352C691.074 691.038 691.863 694.661 691.863 699.516H711.863C711.863 692.557 710.738 686.009 708.116 680.164L689.869 688.352ZM691.863 699.516C691.863 705.929 689.912 710.592 686.323 714.286L700.669 728.222C708.237 720.431 711.863 710.602 711.863 699.516H691.863ZM686.357 714.252C681.914 718.782 677.317 721.376 672.541 722.522L677.209 741.97C686.105 739.835 693.922 735.101 700.635 728.256L686.357 714.252ZM672.45 722.545C666.396 724.058 660.594 724.789 655.023 724.789V744.789C662.359 744.789 669.791 743.825 677.3 741.948L672.45 722.545ZM655.023 724.789C646.047 724.789 639.419 723.899 634.786 722.454L628.831 741.546C636.12 743.82 644.969 744.789 655.023 744.789V724.789ZM634.706 722.429C629.959 720.992 625.347 718.634 620.854 715.242L608.802 731.203C615.028 735.905 621.736 739.399 628.911 741.571L634.706 722.429ZM722.125 723.223L716.084 731.192L716.091 731.197L716.099 731.203L722.125 723.223ZM719.664 715.43L727.985 720.977L727.99 720.968L727.996 720.96L719.664 715.43ZM725.98 705.914L717.66 700.367L717.654 700.375L717.649 700.384L725.98 705.914ZM735.086 705.422L729.359 713.619L729.365 713.624L729.371 713.628L735.086 705.422ZM747.062 712.066L742.834 721.128L742.894 721.156L742.955 721.184L747.062 712.066ZM773.723 685.98L777.569 676.75L777.553 676.743L777.538 676.737L773.723 685.98ZM760.68 681.797L758.04 691.442L758.1 691.459L758.16 691.474L760.68 681.797ZM745.258 676.711L748.868 667.385L748.855 667.38L745.258 676.711ZM784.551 614.531L781.783 624.141L781.793 624.144L781.804 624.146L784.551 614.531ZM800.137 621.914L793.688 629.557L793.694 629.562L793.699 629.566L800.137 621.914ZM802.68 629.789L794.657 623.819L794.653 623.824L802.68 629.789ZM796.035 638.73L788.009 632.766L787.988 632.794L787.967 632.823L796.035 638.73ZM787.012 639.469L781.378 647.731L781.382 647.734L787.012 639.469ZM777.086 633.973L772.709 642.964L772.732 642.975L772.755 642.986L777.086 633.973ZM755.102 631.758L753.14 621.952L753.121 621.956L753.102 621.96L755.102 631.758ZM747.145 650.625L739.425 656.982L739.472 657.039L739.519 657.095L747.145 650.625ZM752.23 654.727L747.758 663.671L747.865 663.724L747.972 663.775L752.23 654.727ZM757.891 656.941L760.974 647.428L760.931 647.415L760.889 647.401L757.891 656.941ZM773.723 662.027L770.695 671.558L770.746 671.574L770.798 671.59L773.723 662.027ZM786.602 666.785L790.705 657.666L790.684 657.656L790.663 657.647L786.602 666.785ZM806.289 684.258L797.122 688.254L797.144 688.303L797.165 688.352L806.289 684.258ZM800.793 721.254L807.932 728.256L807.949 728.239L807.966 728.222L800.793 721.254ZM782.172 732.246L779.838 722.522L779.792 722.533L779.747 722.545L782.172 732.246ZM739.105 732L742.083 722.454L742.043 722.441L742.003 722.429L739.105 732ZM728.166 715.254C727.259 714.566 728.028 714.832 728.503 716.335C728.77 717.182 728.853 718.165 728.679 719.146C728.512 720.081 728.169 720.7 727.985 720.977L711.344 709.883C709.086 713.269 707.958 717.693 709.431 722.358C710.726 726.459 713.6 729.309 716.084 731.192L728.166 715.254ZM727.996 720.96L734.312 711.444L717.649 700.384L711.333 709.899L727.996 720.96ZM734.301 711.461C734.229 711.569 733.878 712.059 733.119 712.546C732.3 713.072 731.324 713.386 730.355 713.439C729.458 713.487 728.89 713.296 728.772 713.252C728.668 713.213 728.858 713.27 729.359 713.619L740.813 697.224C738.012 695.267 734.014 693.212 729.276 693.468C723.874 693.76 719.994 696.865 717.66 700.367L734.301 711.461ZM729.371 713.628C733.062 716.199 737.604 718.688 742.834 721.128L751.291 703.005C746.677 700.851 743.234 698.911 740.801 697.216L729.371 713.628ZM742.955 721.184C749.225 724.009 755.848 725.43 762.73 725.43V705.43C758.675 705.43 754.853 704.608 751.17 702.949L742.955 721.184ZM762.73 725.43C767.327 725.43 771.823 724.903 776.195 723.827L771.414 704.407C768.677 705.081 765.79 705.43 762.73 705.43V725.43ZM776.195 723.827C781.61 722.494 786.492 719.677 789.968 714.975L773.884 703.087C773.641 703.417 773.109 703.99 771.414 704.407L776.195 723.827ZM789.968 714.975C793.228 710.564 794.715 705.446 794.715 700.09H774.715C774.715 701.624 774.342 702.468 773.884 703.087L789.968 714.975ZM794.715 700.09C794.715 696.526 794.12 692.943 792.634 689.573L774.335 697.646C774.489 697.995 774.715 698.732 774.715 700.09H794.715ZM792.634 689.573C790.955 685.769 788.241 682.783 784.897 680.62L774.032 697.411C774.252 697.553 774.33 697.642 774.338 697.651C774.345 697.658 774.343 697.657 774.338 697.65C774.333 697.642 774.332 697.639 774.335 697.646L792.634 689.573ZM784.897 680.62C782.554 679.104 780.111 677.809 777.569 676.75L769.877 695.211C771.272 695.793 772.656 696.521 774.032 697.411L784.897 680.62ZM777.538 676.737C773.529 675.082 768.711 673.555 763.2 672.12L758.16 691.474C763.148 692.773 767.026 694.035 769.908 695.224L777.538 676.737ZM763.319 672.152C758.457 670.821 753.64 669.233 748.868 667.385L741.648 686.037C747.048 688.127 752.512 689.929 758.04 691.442L763.319 672.152ZM748.855 667.38C745.293 666.007 742.05 664.129 739.091 661.728L726.487 677.257C731.075 680.98 736.144 683.915 741.66 686.041L748.855 667.38ZM739.091 661.728C736.217 659.395 734.185 656.936 732.8 654.385L715.223 663.927C717.995 669.032 721.815 673.464 726.487 677.257L739.091 661.728ZM732.8 654.385C731.803 652.549 730.895 649.274 730.895 643.816H710.895C710.895 651.156 712.064 658.107 715.223 663.927L732.8 654.385ZM730.895 643.816C730.895 638.596 732.499 634.516 735.677 631.02L720.878 617.566C714.212 624.898 710.895 633.834 710.895 643.816H730.895ZM735.677 631.02C739.405 626.918 743.356 624.612 747.585 623.6L742.93 604.15C734.362 606.2 726.993 610.839 720.878 617.566L735.677 631.02ZM747.585 623.6C753.23 622.25 758.902 621.578 764.617 621.578V601.578C757.317 601.578 750.083 602.438 742.93 604.15L747.585 623.6ZM764.617 621.578C770.044 621.578 775.756 622.405 781.783 624.141L787.318 604.922C779.674 602.72 772.097 601.578 764.617 601.578V621.578ZM781.804 624.146C788.022 625.923 791.706 627.885 793.688 629.557L806.585 614.271C801.567 610.037 794.861 607.077 787.298 604.916L781.804 624.146ZM793.699 629.566C793.925 629.756 794.085 629.907 794.193 630.016C794.302 630.126 794.343 630.179 794.338 630.173C794.334 630.168 794.268 630.083 794.176 629.918C794.084 629.751 793.956 629.487 793.84 629.13C793.593 628.364 793.458 627.333 793.666 626.19C793.868 625.071 794.321 624.271 794.657 623.819L810.702 635.759C813.366 632.179 814.362 627.595 812.873 622.984C811.614 619.087 808.915 616.231 806.574 614.262L793.699 629.566ZM794.653 623.824L788.009 632.766L804.062 644.695L810.706 635.754L794.653 623.824ZM787.967 632.823C787.988 632.793 788.261 632.428 788.878 632.039C789.544 631.619 790.383 631.319 791.282 631.245C792.969 631.107 793.564 631.833 792.641 631.204L781.382 647.734C784.232 649.675 788.218 651.563 792.913 651.179C798.027 650.76 801.745 647.859 804.104 644.638L787.967 632.823ZM792.645 631.206C789.653 629.167 785.845 627.087 781.417 624.959L772.755 642.986C776.749 644.905 779.557 646.49 781.378 647.731L792.645 631.206ZM781.463 624.982C775.969 622.307 770.127 620.938 764.043 620.938V640.938C767.037 640.938 769.89 641.592 772.709 642.964L781.463 624.982ZM764.043 620.938C760.258 620.938 756.612 621.258 753.14 621.952L757.063 641.564C759.06 641.164 761.375 640.938 764.043 640.938V620.938ZM753.102 621.96C748.356 622.928 744.25 625.268 740.894 628.624L755.036 642.766C755.836 641.966 756.488 641.681 757.101 641.556L753.102 621.96ZM740.894 628.624C736.854 632.664 734.848 637.816 734.848 643.406H754.848C754.848 643.207 754.864 643.082 754.877 643.016C754.883 642.982 754.888 642.96 754.892 642.948C754.895 642.936 754.898 642.93 754.898 642.93C754.898 642.929 754.898 642.929 754.898 642.929C754.898 642.929 754.901 642.924 754.907 642.916C754.917 642.9 754.953 642.85 755.036 642.766L740.894 628.624ZM734.848 643.406C734.848 648.137 736.108 652.954 739.425 656.982L754.864 644.268C754.947 644.368 754.967 644.443 754.951 644.394C754.928 644.321 754.848 644.024 754.848 643.406H734.848ZM739.519 657.095C741.803 659.787 744.536 662.06 747.758 663.671L756.703 645.782C756.206 645.534 755.548 645.073 754.77 644.155L739.519 657.095ZM747.972 663.775C750.23 664.837 752.538 665.741 754.892 666.481L760.889 647.401C759.416 646.938 757.949 646.366 756.488 645.678L747.972 663.775ZM754.808 666.454C760.728 668.373 766.024 670.074 770.695 671.558L776.75 652.497C772.124 651.027 766.866 649.338 760.974 647.428L754.808 666.454ZM770.798 671.59C775.107 672.908 779.016 674.357 782.54 675.923L790.663 657.647C786.312 655.713 781.635 653.99 776.648 652.465L770.798 671.59ZM782.498 675.904C787.543 678.175 790.786 680.183 792.68 681.791L805.625 666.545C801.722 663.232 796.597 660.317 790.705 657.666L782.498 675.904ZM792.68 681.791C794.184 683.068 795.738 685.079 797.122 688.254L815.456 680.262C813.121 674.905 809.917 670.19 805.625 666.545L792.68 681.791ZM797.165 688.352C798.371 691.038 799.16 694.661 799.16 699.516H819.16C819.16 692.557 818.035 686.009 815.413 680.164L797.165 688.352ZM799.16 699.516C799.16 705.929 797.209 710.592 793.62 714.286L807.966 728.222C815.534 720.431 819.16 710.602 819.16 699.516H799.16ZM793.654 714.252C789.21 718.782 784.614 721.376 779.838 722.522L784.506 741.97C793.402 739.835 801.219 735.101 807.932 728.256L793.654 714.252ZM779.747 722.545C773.693 724.058 767.891 724.789 762.32 724.789V744.789C769.656 744.789 777.088 743.825 784.597 741.948L779.747 722.545ZM762.32 724.789C753.344 724.789 746.715 723.899 742.083 722.454L736.128 741.546C743.417 743.82 752.265 744.789 762.32 744.789V724.789ZM742.003 722.429C737.256 720.992 732.643 718.634 728.151 715.242L716.099 731.203C722.325 735.905 729.033 739.399 736.208 741.571L742.003 722.429ZM346.34 960.137L338.821 966.73L346.34 960.137ZM364.633 946.602L356.322 952.163L356.346 952.199L356.371 952.235L364.633 946.602ZM411.309 946.602L403.027 940.997L403.022 941.004L403.017 941.011L411.309 946.602ZM411.309 883.848L402.998 889.409L403.022 889.445L403.046 889.481L411.309 883.848ZM364.633 883.848L356.351 878.243L356.346 878.25L356.341 878.257L364.633 883.848ZM341.738 915.184C341.738 898.049 346.128 885.64 353.859 876.823L338.821 863.638C327.083 877.024 321.738 894.584 321.738 915.184H341.738ZM353.859 876.823C361.279 868.361 372.149 863.578 388.012 863.578V843.578C367.781 843.578 350.869 849.897 338.821 863.638L353.859 876.823ZM388.012 863.578C403.875 863.578 414.744 868.361 422.165 876.823L437.202 863.638C425.154 849.897 408.243 843.578 388.012 843.578V863.578ZM422.165 876.823C429.895 885.64 434.285 898.049 434.285 915.184H454.285C454.285 894.584 448.941 877.024 437.202 863.638L422.165 876.823ZM434.285 915.184C434.285 932.318 429.895 944.727 422.165 953.544L437.202 966.73C448.941 953.343 454.285 935.784 454.285 915.184H434.285ZM422.165 953.544C414.744 962.007 403.875 966.789 388.012 966.789V986.789C408.243 986.789 425.154 980.47 437.202 966.73L422.165 953.544ZM388.012 966.789C372.149 966.789 361.279 962.007 353.859 953.544L338.821 966.73C350.869 980.47 367.781 986.789 388.012 986.789V966.789ZM353.859 953.544C346.128 944.727 341.738 932.318 341.738 915.184H321.738C321.738 935.784 327.083 953.343 338.821 966.73L353.859 953.544ZM347.332 915.184C347.332 929.807 349.895 942.558 356.322 952.163L372.944 941.04C369.637 936.098 367.332 927.903 367.332 915.184H347.332ZM356.371 952.235C363.578 962.807 374.871 967.43 388.012 967.43V947.43C379.824 947.43 375.531 944.834 372.895 940.968L356.371 952.235ZM388.012 967.43C401.149 967.43 412.444 962.806 419.6 952.192L403.017 941.011C400.439 944.835 396.202 947.43 388.012 947.43V967.43ZM419.591 952.206C426.096 942.592 428.691 929.823 428.691 915.184H408.691C408.691 927.888 406.365 936.064 403.027 940.997L419.591 952.206ZM428.691 915.184C428.691 900.552 426.099 887.789 419.571 878.214L403.046 889.481C406.362 894.344 408.691 902.472 408.691 915.184H428.691ZM419.619 878.286C412.476 867.612 401.18 862.938 388.012 862.938V882.938C396.172 882.938 400.406 885.537 402.998 889.409L419.619 878.286ZM388.012 862.938C374.84 862.938 363.546 867.611 356.351 878.243L372.915 889.452C375.564 885.538 379.855 882.938 388.012 882.938V862.938ZM356.341 878.257C349.892 887.823 347.332 900.568 347.332 915.184H367.332C367.332 902.456 369.64 894.31 372.924 889.438L356.341 878.257ZM493.012 862.109L501.5 856.823L501.489 856.805L501.478 856.788L493.012 862.109ZM534.848 929.293L526.359 934.579L529.294 939.293H534.848V929.293ZM535.422 929.293V939.293H546.29L545.387 928.463L535.422 929.293ZM531.238 968.258L522.753 973.549L522.762 973.564L522.772 973.58L531.238 968.258ZM488.582 899.844L497.068 894.553L494.132 889.844H488.582V899.844ZM488.008 899.844V889.844H477.14L478.042 900.674L488.008 899.844ZM470.207 964C470.018 964 471.665 963.982 473.211 965.639C474.636 967.166 474.465 968.522 474.465 967.848H454.465C454.465 971.275 455.251 975.707 458.59 979.285C462.05 982.993 466.568 984 470.207 984V964ZM474.465 967.848V862.52H454.465V967.848H474.465ZM474.465 862.52C474.465 861.845 474.636 863.202 473.211 864.728C471.665 866.385 470.018 866.367 470.207 866.367V846.367C466.568 846.367 462.05 847.374 458.59 851.082C455.251 854.66 454.465 859.092 454.465 862.52H474.465ZM470.207 866.367H482.348V846.367H470.207V866.367ZM482.348 866.367C483.318 866.367 483.703 866.555 483.8 866.607C483.879 866.65 484.15 866.801 484.545 867.431L501.478 856.788C497.155 849.909 490.322 846.367 482.348 846.367V866.367ZM484.523 867.395L526.359 934.579L543.336 924.007L501.5 856.823L484.523 867.395ZM534.848 939.293H535.422V919.293H534.848V939.293ZM545.387 928.463C545.137 925.457 545.012 922.452 545.012 919.449H525.012C525.012 923.009 525.16 926.567 525.456 930.123L545.387 928.463ZM545.012 919.449V862.52H525.012V919.449H545.012ZM545.012 862.52C545.012 861.845 545.183 863.202 543.758 864.728C542.211 866.385 540.565 866.367 540.754 866.367V846.367C537.115 846.367 532.597 847.374 529.137 851.082C525.798 854.66 525.012 859.092 525.012 862.52H545.012ZM540.754 866.367H553.223V846.367H540.754V866.367ZM553.223 866.367C553.412 866.367 551.765 866.385 550.219 864.728C548.794 863.202 548.965 861.845 548.965 862.52H568.965C568.965 859.092 568.179 854.66 564.84 851.082C561.379 847.374 556.862 846.367 553.223 846.367V866.367ZM548.965 862.52V967.848H568.965V862.52H548.965ZM548.965 967.848C548.965 968.522 548.794 967.166 550.219 965.639C551.765 963.982 553.412 964 553.223 964V984C556.862 984 561.379 982.993 564.84 979.285C568.179 975.707 568.965 971.275 568.965 967.848H548.965ZM553.223 964H541.902V984H553.223V964ZM541.902 964C540.932 964 540.547 963.812 540.45 963.76C540.371 963.717 540.1 963.566 539.705 962.936L522.772 973.58C527.095 980.458 533.928 984 541.902 984V964ZM539.724 962.967L497.068 894.553L480.096 905.135L522.753 973.549L539.724 962.967ZM488.582 889.844H488.008V909.844H488.582V889.844ZM478.042 900.674C478.293 903.68 478.418 906.684 478.418 909.688H498.418C498.418 906.128 498.27 902.57 497.973 899.013L478.042 900.674ZM478.418 909.688V967.848H498.418V909.688H478.418ZM478.418 967.848C478.418 968.522 478.247 967.166 479.672 965.639C481.218 963.982 482.865 964 482.676 964V984C486.315 984 490.833 982.993 494.293 979.285C497.632 975.707 498.418 971.275 498.418 967.848H478.418ZM482.676 964H470.207V984H482.676V964ZM609.168 953.656H599.168V963.656H609.168V953.656ZM590.957 964C590.768 964 592.415 963.982 593.961 965.639C595.386 967.166 595.215 968.522 595.215 967.848H575.215C575.215 971.275 576.001 975.707 579.34 979.285C582.8 982.993 587.318 984 590.957 984V964ZM595.215 967.848V862.52H575.215V967.848H595.215ZM595.215 862.52C595.215 861.845 595.386 863.202 593.961 864.728C592.415 866.385 590.768 866.367 590.957 866.367V846.367C587.318 846.367 582.8 847.374 579.34 851.082C576.001 854.66 575.215 859.092 575.215 862.52H595.215ZM590.957 866.367H604.246V846.367H590.957V866.367ZM604.246 866.367C604.042 866.367 603.403 866.337 602.553 865.982C601.643 865.603 600.784 864.972 600.129 864.152C598.928 862.651 599.168 861.537 599.168 862.52H619.168C619.168 859.4 618.588 855.21 615.746 851.658C612.564 847.68 608.094 846.367 604.246 846.367V866.367ZM599.168 862.52V953.656H619.168V862.52H599.168ZM609.168 963.656H656.992V943.656H609.168V963.656ZM656.992 963.656C657.824 963.656 656.582 963.867 655.057 962.546C654.265 961.86 653.727 961.026 653.427 960.245C653.149 959.524 653.145 959.038 653.145 958.988H673.145C673.145 955.267 672.005 950.768 668.156 947.432C664.581 944.334 660.261 943.656 656.992 943.656V963.656ZM653.145 958.988V968.668H673.145V958.988H653.145ZM653.145 968.668C653.145 968.618 653.149 968.132 653.427 967.411C653.727 966.63 654.265 965.797 655.057 965.11C656.582 963.789 657.824 964 656.992 964V984C660.261 984 664.581 983.322 668.156 980.224C672.005 976.888 673.145 972.389 673.145 968.668H653.145ZM656.992 964H590.957V984H656.992V964ZM653.465 863.422L662.071 858.329L662.066 858.321L653.465 863.422ZM679.223 862.027L687.895 857.048L687.885 857.03L687.874 857.012L679.223 862.027ZM696.695 892.461L688.023 897.44L688.071 897.523L688.12 897.606L696.695 892.461ZM701.043 900.172L692.307 905.038L692.32 905.061L692.333 905.085L701.043 900.172ZM705.227 912.641L695.271 913.582L696.128 922.641H705.227V912.641ZM705.555 912.641V922.641H714.653L715.51 913.582L705.555 912.641ZM709.738 900.172L718.448 905.085L718.461 905.061L718.475 905.038L709.738 900.172ZM714.086 892.461L722.661 897.606L722.71 897.523L722.758 897.44L714.086 892.461ZM731.559 862.027L722.907 857.012L722.897 857.03L722.886 857.048L731.559 862.027ZM757.316 863.422L748.715 858.321L748.71 858.329L757.316 863.422ZM717.367 930.934L708.761 925.841L707.367 928.197V930.934H717.367ZM693.414 930.934H703.414V928.197L702.02 925.841L693.414 930.934ZM662.066 858.321C661.668 857.649 661.794 857.671 661.917 858.251C662.054 858.894 662.283 860.784 661.112 862.927C659.921 865.106 658.145 865.972 657.401 866.235C656.755 866.464 656.588 866.367 657.32 866.367V846.367C655.373 846.367 653.036 846.564 650.728 847.381C648.324 848.232 645.396 849.98 643.562 853.335C641.748 856.654 641.844 860.014 642.357 862.42C642.856 864.764 643.868 866.843 644.864 868.523L662.066 858.321ZM657.32 866.367H671.676V846.367H657.32V866.367ZM671.676 866.367C671.257 866.367 670.824 866.294 670.426 866.154C670.039 866.017 669.795 865.857 669.695 865.782C669.604 865.714 669.658 865.736 669.829 865.942C670.001 866.148 670.255 866.498 670.571 867.043L687.874 857.012C684.925 851.926 679.745 846.367 671.676 846.367V866.367ZM670.55 867.006L688.023 897.44L705.368 887.482L687.895 857.048L670.55 867.006ZM688.12 897.606C688.508 898.252 689.858 900.641 692.307 905.038L709.779 895.306C707.415 891.062 705.867 888.311 705.27 887.316L688.12 897.606ZM692.333 905.085C694.189 908.374 695.044 911.188 695.271 913.582L715.182 911.699C714.643 906 712.71 900.501 709.753 895.259L692.333 905.085ZM705.227 922.641H705.555V902.641H705.227V922.641ZM715.51 913.582C715.737 911.188 716.593 908.374 718.448 905.085L701.028 895.259C698.072 900.501 696.138 906 695.599 911.699L715.51 913.582ZM718.475 905.038C720.923 900.641 722.273 898.252 722.661 897.606L705.511 887.316C704.914 888.311 703.366 891.062 701.002 895.306L718.475 905.038ZM722.758 897.44L740.231 867.006L722.886 857.048L705.414 887.482L722.758 897.44ZM740.21 867.043C740.526 866.498 740.781 866.148 740.952 865.942C741.123 865.736 741.177 865.714 741.086 865.782C740.986 865.857 740.742 866.017 740.355 866.154C739.957 866.294 739.524 866.367 739.105 866.367V846.367C731.036 846.367 725.856 851.926 722.907 857.012L740.21 867.043ZM739.105 866.367H753.461V846.367H739.105V866.367ZM753.461 866.367C754.193 866.367 754.027 866.464 753.38 866.235C752.636 865.972 750.86 865.106 749.669 862.927C748.498 860.784 748.727 858.894 748.864 858.251C748.988 857.671 749.114 857.649 748.715 858.321L765.918 868.523C766.914 866.843 767.925 864.764 768.425 862.42C768.938 860.014 769.033 856.654 767.219 853.335C765.386 849.98 762.458 848.232 760.053 847.381C757.745 846.564 755.408 846.367 753.461 846.367V866.367ZM748.71 858.329L708.761 925.841L725.973 936.026L765.923 868.514L748.71 858.329ZM707.367 930.934V969.488H727.367V930.934H707.367ZM707.367 969.488C707.367 969.195 707.413 968.475 707.802 967.557C708.218 966.578 708.896 965.683 709.753 965.009C711.315 963.782 712.502 964 711.625 964V984C714.576 984 718.634 983.466 722.11 980.735C726.045 977.644 727.367 973.262 727.367 969.488H707.367ZM711.625 964H699.156V984H711.625V964ZM699.156 964C698.28 964 699.466 963.782 701.028 965.009C701.886 965.683 702.564 966.578 702.979 967.557C703.368 968.475 703.414 969.195 703.414 969.488H683.414C683.414 973.262 684.736 977.644 688.671 980.735C692.147 983.466 696.205 984 699.156 984V964ZM703.414 969.488V930.934H683.414V969.488H703.414ZM702.02 925.841L662.071 858.329L644.859 868.514L684.808 936.026L702.02 925.841Z" fill="black" mask="url(#path-6-outside-2_443_53)"/>
</g>
<defs>
<filter id="filter0_di_443_53" x="131.293" y="7.36621" width="876.563" height="1160.23" filterUnits="userSpaceOnUse" color-interpolation-filters="sRGB">
<feFlood flood-opacity="0" result="BackgroundImageFix"/>
<feColorMatrix in="SourceAlpha" type="matrix" values="0 0 0 0 0 0 0 0 0 0 0 0 0 0 0 0 0 0 127 0" result="hardAlpha"/>
<feOffset/>
<feGaussianBlur stdDeviation="50"/>
<feComposite in2="hardAlpha" operator="out"/>
<feColorMatrix type="matrix" values="0 0 0 0 0 0 0 0 0 0 0 0 0 0 0 0 0 0 0.25 0"/>
<feBlend mode="normal" in2="BackgroundImageFix" result="effect1_dropShadow_443_53"/>
<feBlend mode="normal" in="SourceGraphic" in2="effect1_dropShadow_443_53" result="shape"/>
<feColorMatrix in="SourceAlpha" type="matrix" values="0 0 0 0 0 0 0 0 0 0 0 0 0 0 0 0 0 0 127 0" result="hardAlpha"/>
<feOffset/>
<feGaussianBlur stdDeviation="50"/>
<feComposite in2="hardAlpha" operator="arithmetic" k2="-1" k3="1"/>
<feColorMatrix type="matrix" values="0 0 0 0 0.960784 0 0 0 0 0.960784 0 0 0 0 0.960784 0 0 0 0.25 0"/>
<feBlend mode="normal" in2="shape" result="effect2_innerShadow_443_53"/>
</filter>
<filter id="filter1_di_443_53" x="629.694" y="0" width="389.054" height="352.452" filterUnits="userSpaceOnUse" color-interpolation-filters="sRGB">
<feFlood flood-opacity="0" result="BackgroundImageFix"/>
<feColorMatrix in="SourceAlpha" type="matrix" values="0 0 0 0 0 0 0 0 0 0 0 0 0 0 0 0 0 0 127 0" result="hardAlpha"/>
<feOffset/>
<feGaussianBlur stdDeviation="50"/>
<feComposite in2="hardAlpha" operator="out"/>
<feColorMatrix type="matrix" values="0 0 0 0 0 0 0 0 0 0 0 0 0 0 0 0 0 0 0.25 0"/>
<feBlend mode="normal" in2="BackgroundImageFix" result="effect1_dropShadow_443_53"/>
<feBlend mode="normal" in="SourceGraphic" in2="effect1_dropShadow_443_53" result="shape"/>
<feColorMatrix in="SourceAlpha" type="matrix" values="0 0 0 0 0 0 0 0 0 0 0 0 0 0 0 0 0 0 127 0" result="hardAlpha"/>
<feOffset/>
<feGaussianBlur stdDeviation="50"/>
<feComposite in2="hardAlpha" operator="arithmetic" k2="-1" k3="1"/>
<feColorMatrix type="matrix" values="0 0 0 0 0.960784 0 0 0 0 0.960784 0 0 0 0 0.960784 0 0 0 0.25 0"/>
<feBlend mode="normal" in2="shape" result="effect2_innerShadow_443_53"/>
</filter>
<filter id="filter2_d_443_53" x="0.354492" y="313" width="1082.67" height="984" filterUnits="userSpaceOnUse" color-interpolation-filters="sRGB">
<feFlood flood-opacity="0" result="BackgroundImageFix"/>
<feColorMatrix in="SourceAlpha" type="matrix" values="0 0 0 0 0 0 0 0 0 0 0 0 0 0 0 0 0 0 127 0" result="hardAlpha"/>
<feOffset/>
<feGaussianBlur stdDeviation="50"/>
<feComposite in2="hardAlpha" operator="out"/>
<feColorMatrix type="matrix" values="0 0 0 0 0 0 0 0 0 0 0 0 0 0 0 0 0 0 0.25 0"/>
<feBlend mode="normal" in2="BackgroundImageFix" result="effect1_dropShadow_443_53"/>
<feBlend mode="normal" in="SourceGraphic" in2="effect1_dropShadow_443_53" result="shape"/>
</filter>
<filter id="filter3_d_443_53" x="174.152" y="511.578" width="735.008" height="565.211" filterUnits="userSpaceOnUse" color-interpolation-filters="sRGB">
<feFlood flood-opacity="0" result="BackgroundImageFix"/>
<feColorMatrix in="SourceAlpha" type="matrix" values="0 0 0 0 0 0 0 0 0 0 0 0 0 0 0 0 0 0 127 0" result="hardAlpha"/>
<feOffset/>
<feGaussianBlur stdDeviation="50"/>
<feComposite in2="hardAlpha" operator="out"/>
<feColorMatrix type="matrix" values="0 0 0 0 0 0 0 0 0 0 0 0 0 0 0 0 0 0 0.25 0"/>
<feBlend mode="normal" in2="BackgroundImageFix" result="effect1_dropShadow_443_53"/>
<feBlend mode="normal" in="SourceGraphic" in2="effect1_dropShadow_443_53" result="shape"/>
</filter>
<linearGradient id="paint0_linear_443_53" x1="342.904" y1="1010.89" x2="842.904" y2="144.866" gradientUnits="userSpaceOnUse">
<stop/>
<stop offset="1" stop-color="#666666"/>
</linearGradient>
<linearGradient id="paint1_linear_443_53" x1="767.194" y1="164.952" x2="767.194" y2="339.952" gradientUnits="userSpaceOnUse">
<stop offset="0.651" stop-color="white" stop-opacity="0"/>
<stop offset="1" stop-color="white"/>
</linearGradient>
<linearGradient id="paint2_linear_443_53" x1="767.194" y1="164.952" x2="767.194" y2="339.952" gradientUnits="userSpaceOnUse">
<stop stop-color="white"/>
<stop offset="0.346" stop-color="white" stop-opacity="0"/>
</linearGradient>
<linearGradient id="paint3_linear_443_53" x1="541.5" y1="1197" x2="541.5" y2="413" gradientUnits="userSpaceOnUse">
<stop stop-color="#038B00"/>
<stop offset="1" stop-color="#03A700"/>
</linearGradient>
</defs>
</svg>
