<svg width="719" height="805" viewBox="0 0 719 805" fill="none" xmlns="http://www.w3.org/2000/svg">
<rect x="430.655" y="648.449" width="322.301" height="322.301" transform="rotate(-151.953 430.655 648.449)" fill="#F9A72B"/>
<ellipse cx="345.179" cy="601.819" rx="74.8622" ry="74.4393" transform="rotate(-106.953 345.179 601.819)" fill="#03A700"/>
<ellipse cx="241.416" cy="516.718" rx="74.8622" ry="74.4393" transform="rotate(-106.953 241.416 516.718)" fill="#03A700"/>
<ellipse cx="522.587" cy="457.094" rx="74.4393" ry="74.8622" transform="rotate(-106.953 522.587 457.094)" fill="#03A700"/>
<circle cx="377.459" cy="279.81" r="74.8622" transform="rotate(-106.953 377.459 279.81)" fill="#03A700"/>
<mask id="path-6-inside-1_317_109" fill="white">
<path fill-rule="evenodd" clip-rule="evenodd" d="M297.146 252.425C294.576 253.208 291.807 252.907 289.407 251.7C261.835 237.836 229.091 234.144 197.24 243.854C131.503 263.893 94.4572 333.428 114.496 399.165C124.971 433.526 148.968 460.048 178.878 474.676C184.86 477.601 187.195 485.259 183.862 491.025C167.198 519.85 162.076 555.249 172.551 589.609C192.59 655.346 262.125 692.392 327.862 672.353C359.714 662.643 384.829 641.313 399.979 614.426C401.298 612.085 403.428 610.291 405.998 609.508L590.632 553.224C603.839 549.198 611.282 535.228 607.256 522.021L512.984 212.766C508.958 199.558 494.987 192.116 481.78 196.142L297.146 252.425Z"/>
</mask>
<path fill-rule="evenodd" clip-rule="evenodd" d="M297.146 252.425C294.576 253.208 291.807 252.907 289.407 251.7C261.835 237.836 229.091 234.144 197.24 243.854C131.503 263.893 94.4572 333.428 114.496 399.165C124.971 433.526 148.968 460.048 178.878 474.676C184.86 477.601 187.195 485.259 183.862 491.025C167.198 519.85 162.076 555.249 172.551 589.609C192.59 655.346 262.125 692.392 327.862 672.353C359.714 662.643 384.829 641.313 399.979 614.426C401.298 612.085 403.428 610.291 405.998 609.508L590.632 553.224C603.839 549.198 611.282 535.228 607.256 522.021L512.984 212.766C508.958 199.558 494.987 192.116 481.78 196.142L297.146 252.425Z" fill="#DEAA75"/>
<path d="M607.256 522.021L597.691 524.937L607.256 522.021ZM512.984 212.766L522.549 209.85L512.984 212.766ZM178.878 474.676L174.484 483.659L178.878 474.676ZM183.862 491.025L175.204 486.02L183.862 491.025ZM200.156 253.419C229.452 244.489 259.547 247.879 284.915 260.634L293.9 242.766C264.122 227.794 228.731 223.8 194.324 234.288L200.156 253.419ZM124.062 396.249C105.633 335.795 139.701 271.848 200.156 253.419L194.324 234.288C123.304 255.938 83.2813 331.061 104.931 402.081L124.062 396.249ZM183.271 465.692C155.748 452.231 133.694 427.849 124.062 396.249L104.931 402.081C116.247 439.203 142.188 467.864 174.484 483.659L183.271 465.692ZM182.116 586.693C172.483 555.094 177.185 522.555 192.519 496.03L175.204 486.02C157.211 517.145 151.669 555.404 162.985 592.525L182.116 586.693ZM324.946 662.787C264.492 681.216 200.545 647.148 182.116 586.693L162.985 592.525C184.635 663.545 259.758 703.568 330.778 681.918L324.946 662.787ZM391.267 609.517C377.328 634.255 354.242 653.857 324.946 662.787L330.778 681.918C365.185 671.43 392.33 648.372 408.692 619.335L391.267 609.517ZM587.716 543.659L403.082 599.942L408.913 619.073L593.548 562.79L587.716 543.659ZM597.691 524.937C600.106 532.861 595.64 541.243 587.716 543.659L593.548 562.79C612.038 557.153 622.458 537.595 616.821 519.105L597.691 524.937ZM503.418 215.681L597.691 524.937L616.821 519.105L522.549 209.85L503.418 215.681ZM484.696 205.707C492.62 203.292 501.002 207.757 503.418 215.681L522.549 209.85C516.913 191.36 497.354 180.94 478.864 186.576L484.696 205.707ZM300.062 261.991L484.696 205.707L478.864 186.576L294.23 242.86L300.062 261.991ZM174.484 483.659C174.791 483.809 175.126 484.138 175.297 484.701C175.469 485.264 175.375 485.725 175.204 486.02L192.519 496.03C198.752 485.247 194.46 471.164 183.271 465.692L174.484 483.659ZM408.692 619.335C408.759 619.214 408.831 619.14 408.878 619.101C408.922 619.065 408.935 619.067 408.913 619.073L403.082 599.942C397.886 601.526 393.76 605.094 391.267 609.517L408.692 619.335ZM284.915 260.634C289.451 262.915 294.866 263.574 300.062 261.991L294.23 242.86C294.251 242.853 294.241 242.862 294.185 242.856C294.124 242.851 294.023 242.828 293.9 242.766L284.915 260.634Z" fill="#A65F17" mask="url(#path-6-inside-1_317_109)"/>
<g filter="url(#filter0_di_317_109)">
<rect x="100.464" y="123.189" width="514" height="581.251" transform="rotate(-0.416957 100.464 123.189)" fill="#F5F5F5" fill-opacity="0.5" shape-rendering="crispEdges"/>
</g>
<g filter="url(#filter1_di_317_109)">
<rect width="514" height="40.8769" transform="matrix(0.999973 -0.00727721 -0.00727721 -0.999973 100.624 145.301)" fill="#FFF068" fill-opacity="0.5" shape-rendering="crispEdges"/>
</g>
<defs>
<filter id="filter0_di_317_109" x="0.463501" y="19.4492" width="718.216" height="784.976" filterUnits="userSpaceOnUse" color-interpolation-filters="sRGB">
<feFlood flood-opacity="0" result="BackgroundImageFix"/>
<feColorMatrix in="SourceAlpha" type="matrix" values="0 0 0 0 0 0 0 0 0 0 0 0 0 0 0 0 0 0 127 0" result="hardAlpha"/>
<feOffset/>
<feGaussianBlur stdDeviation="50"/>
<feComposite in2="hardAlpha" operator="out"/>
<feColorMatrix type="matrix" values="0 0 0 0 0 0 0 0 0 0 0 0 0 0 0 0 0 0 0.25 0"/>
<feBlend mode="normal" in2="BackgroundImageFix" result="effect1_dropShadow_317_109"/>
<feBlend mode="normal" in="SourceGraphic" in2="effect1_dropShadow_317_109" result="shape"/>
<feColorMatrix in="SourceAlpha" type="matrix" values="0 0 0 0 0 0 0 0 0 0 0 0 0 0 0 0 0 0 127 0" result="hardAlpha"/>
<feOffset/>
<feGaussianBlur stdDeviation="50"/>
<feComposite in2="hardAlpha" operator="arithmetic" k2="-1" k3="1"/>
<feColorMatrix type="matrix" values="0 0 0 0 0.960784 0 0 0 0 0.960784 0 0 0 0 0.960784 0 0 0 0.25 0"/>
<feBlend mode="normal" in2="shape" result="effect2_innerShadow_317_109"/>
</filter>
<filter id="filter1_di_317_109" x="0.326904" y="0.68457" width="714.284" height="244.616" filterUnits="userSpaceOnUse" color-interpolation-filters="sRGB">
<feFlood flood-opacity="0" result="BackgroundImageFix"/>
<feColorMatrix in="SourceAlpha" type="matrix" values="0 0 0 0 0 0 0 0 0 0 0 0 0 0 0 0 0 0 127 0" result="hardAlpha"/>
<feOffset/>
<feGaussianBlur stdDeviation="50"/>
<feComposite in2="hardAlpha" operator="out"/>
<feColorMatrix type="matrix" values="0 0 0 0 0 0 0 0 0 0 0 0 0 0 0 0 0 0 0.25 0"/>
<feBlend mode="normal" in2="BackgroundImageFix" result="effect1_dropShadow_317_109"/>
<feBlend mode="normal" in="SourceGraphic" in2="effect1_dropShadow_317_109" result="shape"/>
<feColorMatrix in="SourceAlpha" type="matrix" values="0 0 0 0 0 0 0 0 0 0 0 0 0 0 0 0 0 0 127 0" result="hardAlpha"/>
<feOffset/>
<feGaussianBlur stdDeviation="50"/>
<feComposite in2="hardAlpha" operator="arithmetic" k2="-1" k3="1"/>
<feColorMatrix type="matrix" values="0 0 0 0 0.960784 0 0 0 0 0.960784 0 0 0 0 0.960784 0 0 0 0.25 0"/>
<feBlend mode="normal" in2="shape" result="effect2_innerShadow_317_109"/>
</filter>
</defs>
</svg>
